<?xml version="1.0" encoding="UTF-8" standalone="no"?>
<svg
   xmlns:dc="http://purl.org/dc/elements/1.1/"
   xmlns:cc="http://creativecommons.org/ns#"
   xmlns:rdf="http://www.w3.org/1999/02/22-rdf-syntax-ns#"
   xmlns:svg="http://www.w3.org/2000/svg"
   xmlns="http://www.w3.org/2000/svg"
   xml:space="preserve"
   width="128"
   viewBox="0 0 128 128"
   version="1.1"
   id="arrow_down"
   height="128"
   enable-background="new 0 0 96 96"><metadata
     id="metadata9"><rdf:RDF><cc:Work
         rdf:about=""><dc:format>image/svg+xml</dc:format><dc:type
           rdf:resource="http://purl.org/dc/dcmitype/StillImage" /><dc:title></dc:title></cc:Work></rdf:RDF></metadata><defs
     id="defs7" /><circle
     r="49"
     cy="64"
     cx="64"
     id="path4137"
     style="opacity:1;fill:#3d9970;fill-opacity:1" /><path
     style="fill:#ffffff;fill-opacity:0.8"
     id="path3"
     d="m 60.903174,36.122003 0,48.278446 -16.616041,-16.615274 c -1.208819,-1.209594 -3.170344,-1.209594 -4.379938,-7.74e-4 -1.209593,1.209594 -1.209593,3.171892 0,4.381486 l 21.902788,21.902022 0,0 c 0.144036,0.14403 0.302785,0.27258 0.471602,0.38564 0.07821,0.0519 0.162621,0.0883 0.243932,0.1332 0.09602,0.0511 0.187402,0.10996 0.288847,0.151 0.104542,0.0441 0.212956,0.0689 0.321371,0.0999 0.08596,0.0255 0.167267,0.0589 0.256322,0.0767 0.201341,0.0403 0.405005,0.0612 0.608669,0.0612 l 0,0 c 0.0023,0 0.0046,-7.7e-4 0.007,-7.7e-4 0.200567,-7.8e-4 0.401908,-0.0209 0.599377,-0.0604 0.09293,-0.0186 0.178883,-0.0534 0.269487,-0.0805 0.102993,-0.0302 0.207536,-0.0534 0.307432,-0.0953 0.10764,-0.0449 0.205212,-0.10531 0.306657,-0.16107 0.07589,-0.0418 0.153329,-0.0751 0.226122,-0.12313 0.171139,-0.11306 0.330663,-0.24316 0.475474,-0.38797 L 88.092708,72.165113 c 1.209594,-1.209594 1.209594,-3.171118 7.74e-4,-4.380712 -1.209594,-1.209594 -3.171118,-1.209594 -4.380712,0 l -16.614492,16.615266 0,-48.277664 c 0,-1.710623 -1.386929,-3.097552 -3.097552,-3.097552 -1.710623,0 -3.097552,1.386929 -3.097552,3.097552 z" /></svg>