<?xml version="1.0" encoding="UTF-8" standalone="no"?>
<!-- Created with Inkscape (http://www.inkscape.org/) -->

<svg
   xmlns:dc="http://purl.org/dc/elements/1.1/"
   xmlns:cc="http://creativecommons.org/ns#"
   xmlns:rdf="http://www.w3.org/1999/02/22-rdf-syntax-ns#"
   xmlns:svg="http://www.w3.org/2000/svg"
   xmlns="http://www.w3.org/2000/svg"
   xmlns:sodipodi="http://sodipodi.sourceforge.net/DTD/sodipodi-0.dtd"
   xmlns:inkscape="http://www.inkscape.org/namespaces/inkscape"
   width="500"
   height="500"
   id="svg2"
   version="1.1"
   inkscape:version="0.48.4 r9939"
   sodipodi:docname="add_files_prompt.svg">
  <defs
     id="defs4" />
  <sodipodi:namedview
     id="base"
     pagecolor="#ffffff"
     bordercolor="#666666"
     borderopacity="1.0"
     inkscape:pageopacity="0.0"
     inkscape:pageshadow="2"
     inkscape:zoom="0.98994949"
     inkscape:cx="230.81972"
     inkscape:cy="297.32979"
     inkscape:document-units="px"
     inkscape:current-layer="layer1"
     showgrid="false"
     fit-margin-top="0"
     fit-margin-left="0"
     fit-margin-right="0"
     fit-margin-bottom="0"
     inkscape:window-width="1280"
     inkscape:window-height="776"
     inkscape:window-x="0"
     inkscape:window-y="24"
     inkscape:window-maximized="1" />
  <metadata
     id="metadata7">
    <rdf:RDF>
      <cc:Work
         rdf:about="">
        <dc:format>image/svg+xml</dc:format>
        <dc:type
           rdf:resource="http://purl.org/dc/dcmitype/StillImage" />
        <dc:title></dc:title>
      </cc:Work>
    </rdf:RDF>
  </metadata>
  <g
     inkscape:label="Layer 1"
     inkscape:groupmode="layer"
     id="layer1"
     transform="translate(-122.04724,-276.1811)">
    <path
       sodipodi:type="arc"
       style="fill:#808080;fill-opacity:0.26666666999999999"
       id="path2985"
       sodipodi:cx="453.5585"
       sodipodi:cy="462.43311"
       sodipodi:rx="124.24876"
       sodipodi:ry="159.6041"
       d="m 577.80726,462.43311 c 0,88.1469 -55.62806,159.60409 -124.24876,159.60409 -68.62069,0 -124.24875,-71.45719 -124.24875,-159.60409 0,-88.14691 55.62806,-159.6041 124.24875,-159.6041 68.6207,0 124.24876,71.45719 124.24876,159.6041 z"
       transform="matrix(2.0120926,0,0,1.5663758,-540.55446,-198.16293)" />
    <g
       transform="translate(112.01349,347.90488)"
       style="font-size:40px;font-style:normal;font-variant:normal;font-weight:normal;font-stretch:normal;line-height:125%;letter-spacing:0px;word-spacing:0px;fill:#ffffff;fill-opacity:1;stroke:none;font-family:Varela Round;-inkscape-font-specification:Varela Round"
       id="flowRoot3755">
      <path
         d="m 86.266875,152.60917 c 4.453315,3e-5 7.999978,1.49336 10.64,4.48 1.173308,1.30669 2.039974,2.80002 2.6,4.48 0.586635,1.65335 0.879975,3.32002 0.880005,5 -3e-5,1.68002 -0.29337,3.36001 -0.880005,5.04 -0.560026,1.65334 -1.426692,3.13334 -2.6,4.44 -2.640022,2.98667 -6.186685,4.48 -10.64,4.48 l -8.04,0 c -0.506672,0 -0.933338,-0.17333 -1.28,-0.52 -0.346671,-0.34666 -0.520004,-0.77333 -0.52,-1.28 l 0,-24.28 c -4e-6,-0.50664 0.173329,-0.9333 0.52,-1.28 0.346662,-0.3733 0.773328,-0.55997 1.28,-0.56 l 8.04,0 m -0.44,24.52 c 3.30665,1e-5 5.973314,-0.97333 8,-2.92 1.97331,-1.94665 2.959976,-4.49332 2.96,-7.64 -2.4e-5,-3.14665 -0.98669,-5.69331 -2.96,-7.64 -2.026686,-1.94664 -4.69335,-2.91997 -8,-2.92 l -5.76,0 0,21.12 5.76,0"
         style="text-align:center;text-anchor:middle;fill:#ffffff;font-family:Varela Round;-inkscape-font-specification:Varela Round"
         id="path3023" />
      <path
         d="m 108.99531,163.48917 c 1.86666,-2.50664 3.95999,-3.75998 6.28,-3.76 l 0.2,0 c 0.50666,2e-5 0.91999,0.17336 1.24,0.52 0.34665,0.34669 0.51999,0.78669 0.52,1.32 -1e-5,0.50669 -0.17335,0.92002 -0.52,1.24 -0.34668,0.29335 -0.78668,0.44002 -1.32,0.44 l -0.2,0 c -1.33334,2e-5 -2.53334,0.33335 -3.6,1 -1.04001,0.64002 -1.90667,1.48002 -2.6,2.52 l 0,12.16 c 0,0.50667 -0.18667,0.93334 -0.56,1.28 -0.34667,0.34667 -0.77334,0.52 -1.28,0.52 -0.50667,0 -0.93333,-0.17333 -1.28,-0.52 -0.34667,-0.34666 -0.52,-0.77333 -0.52,-1.28 l 0,-17.16 c 0,-0.50664 0.17333,-0.93331 0.52,-1.28 0.34667,-0.37331 0.77333,-0.55998 1.28,-0.56 0.50666,2e-5 0.93333,0.18669 1.28,0.56 0.37333,0.34669 0.56,0.77336 0.56,1.28 l 0,1.72"
         style="text-align:center;text-anchor:middle;fill:#ffffff;font-family:Varela Round;-inkscape-font-specification:Varela Round"
         id="path3025" />
      <path
         d="m 121.62313,161.16917 c 2.23999,-0.95998 4.55999,-1.43998 6.95999,-1.44 2.71999,2e-5 4.82666,0.82669 6.32,2.48 1.33332,1.44002 1.99999,3.24002 2,5.4 l 0,11.32 c -1e-5,0.50667 -0.18668,0.93334 -0.56,1.28 -0.34668,0.34667 -0.77335,0.52 -1.27999,0.52 -0.50669,0 -0.93335,-0.17333 -1.28001,-0.52 -0.34668,-0.34666 -0.52001,-0.77333 -0.52,-1.28 l 0,-1.04 c -0.72001,0.74667 -1.69334,1.44 -2.92,2.08 -1.20001,0.64 -2.73334,0.96 -4.59999,0.96 -1.84001,0 -3.37334,-0.53333 -4.60001,-1.6 -1.28,-1.11999 -1.92,-2.58666 -1.92,-4.4 0,-1.97332 0.74667,-3.51999 2.24001,-4.64 1.62666,-1.22665 3.94665,-1.83998 6.95999,-1.84 l 4.84,0 0,-0.32 c -10e-6,-1.78665 -0.44001,-3.05331 -1.32,-3.8 -0.88001,-0.77331 -2.22667,-1.15998 -4.03999,-1.16 -1.54668,2e-5 -3.32001,0.32002 -5.32001,0.96 -0.21333,0.0534 -0.45333,0.08 -0.72,0.08 -0.26667,2e-5 -0.54667,-0.13331 -0.84,-0.4 -0.29333,-0.29331 -0.44,-0.73331 -0.44,-1.32 0,-0.58664 0.34667,-1.02664 1.04001,-1.32 m 1.23999,13.36 c 0,2.13334 1.41333,3.20001 4.24001,3.2 1.25332,1e-5 2.41332,-0.30666 3.47999,-0.92 1.09332,-0.61333 1.98666,-1.30666 2.68,-2.08 l 0,-3.36 -4.36,0 c -1.89334,1e-5 -3.37334,0.24001 -4.43999,0.72 -1.06668,0.48001 -1.60001,1.29334 -1.60001,2.44"
         style="text-align:center;text-anchor:middle;fill:#ffffff;font-family:Varela Round;-inkscape-font-specification:Varela Round"
         id="path3027" />
      <path
         d="m 158.33062,162.76917 0,-1 c -1e-5,-0.50664 0.17332,-0.93331 0.52,-1.28 0.34665,-0.37331 0.77332,-0.55998 1.28,-0.56 0.50665,2e-5 0.93332,0.18669 1.28,0.56 0.37332,0.34669 0.55998,0.77336 0.56,1.28 l 0,17.88 c -2e-5,3.38667 -0.81335,5.97333 -2.44,7.76 -1.62668,1.81333 -3.94668,2.71999 -6.96,2.72 -3.2,-10e-6 -6.05333,-0.69334 -8.56,-2.08 -0.48,-0.29334 -0.72,-0.70667 -0.72,-1.24 0,-0.50667 0.14667,-0.93334 0.44,-1.28 0.32,-0.34667 0.64,-0.52 0.96,-0.52 0.34667,0 0.65333,0.0533 0.92,0.16 2.02666,1.01333 4.22666,1.52 6.6,1.52 4.07999,0 6.11999,-2.17333 6.12,-6.52 l 0,-2.68 c -1.89334,2.02667 -4.17334,3.04 -6.84,3.04 -2.53334,0 -4.70667,-0.85333 -6.52,-2.56 -2.10666,-1.94666 -3.16,-4.55999 -3.16,-7.84 0,-3.27998 1.05334,-5.89331 3.16,-7.84 1.81333,-1.70664 4.01333,-2.55998 6.6,-2.56 2.61332,2e-5 4.86666,1.01336 6.76,3.04 m 0,3.24 c -0.74668,-0.77331 -1.60001,-1.45331 -2.56,-2.04 -0.96001,-0.61331 -2.02668,-0.91998 -3.2,-0.92 -1.17334,2e-5 -2.17334,0.14669 -3,0.44 -0.82667,0.29335 -1.54667,0.72002 -2.16,1.28 -1.30667,1.22668 -1.96,3.01335 -1.96,5.36 0,3.44001 1.37333,5.65334 4.12,6.64 0.82666,0.29334 1.82666,0.44001 3,0.44 1.94666,1e-5 3.86666,-0.98666 5.76,-2.96 l 0,-8.24"
         style="text-align:center;text-anchor:middle;fill:#ffffff;font-family:Varela Round;-inkscape-font-specification:Varela Round"
         id="path3029" />
      <path
         d="m 179.43562,161.16917 c 2.24,-0.95998 4.56,-1.43998 6.96,-1.44 2.71999,2e-5 4.82666,0.82669 6.32,2.48 1.33332,1.44002 1.99999,3.24002 2,5.4 l 0,11.32 c -1e-5,0.50667 -0.18668,0.93334 -0.56,1.28 -0.34668,0.34667 -0.77335,0.52 -1.27999,0.52 -0.50669,0 -0.93335,-0.17333 -1.28001,-0.52 -0.34668,-0.34666 -0.52001,-0.77333 -0.52,-1.28 l 0,-1.04 c -0.72001,0.74667 -1.69334,1.44 -2.92,2.08 -1.20001,0.64 -2.73334,0.96 -4.6,0.96 -1.84,0 -3.37333,-0.53333 -4.6,-1.6 -1.28,-1.11999 -1.92,-2.58666 -1.92,-4.4 0,-1.97332 0.74667,-3.51999 2.24,-4.64 1.62667,-1.22665 3.94666,-1.83998 6.96,-1.84 l 4.84,0 0,-0.32 c -10e-6,-1.78665 -0.44001,-3.05331 -1.32,-3.8 -0.88001,-0.77331 -2.22667,-1.15998 -4.04,-1.16 -1.54667,2e-5 -3.32,0.32002 -5.32,0.96 -0.21333,0.0534 -0.45333,0.08 -0.72,0.08 -0.26667,2e-5 -0.54667,-0.13331 -0.84,-0.4 -0.29333,-0.29331 -0.44,-0.73331 -0.44,-1.32 0,-0.58664 0.34667,-1.02664 1.04,-1.32 m 1.24,13.36 c 0,2.13334 1.41333,3.20001 4.24,3.2 1.25333,1e-5 2.41333,-0.30666 3.48,-0.92 1.09332,-0.61333 1.98666,-1.30666 2.68,-2.08 l 0,-3.36 -4.36,0 c -1.89334,1e-5 -3.37334,0.24001 -4.44,0.72 -1.06667,0.48001 -1.6,1.29334 -1.6,2.44"
         style="text-align:center;text-anchor:middle;fill:#ffffff;font-family:Varela Round;-inkscape-font-specification:Varela Round"
         id="path3031" />
      <path
         d="m 211.06313,163.08917 c -2.34668,2e-5 -4.53335,1.28002 -6.56001,3.84 l 0,12 c 0,0.50667 -0.18667,0.93334 -0.56,1.28 -0.34667,0.34667 -0.77333,0.52 -1.28,0.52 -0.50667,0 -0.93333,-0.17333 -1.28,-0.52 -0.34667,-0.34666 -0.52,-0.77333 -0.52,-1.28 l 0,-17.16 c 0,-0.53331 0.17333,-0.97331 0.52,-1.32 0.34667,-0.34664 0.77333,-0.51998 1.28,-0.52 0.50667,2e-5 0.93333,0.17336 1.28,0.52 0.37333,0.34669 0.56,0.78669 0.56,1.32 l 0,1.64 c 1.06666,-1.11998 1.98666,-1.90664 2.76,-2.36 1.51999,-0.87998 2.95999,-1.31998 4.32,-1.32 1.38666,2e-5 2.51999,0.21336 3.4,0.64 0.87999,0.40002 1.62665,0.96002 2.24,1.68 1.25332,1.46669 1.87998,3.30669 1.88,5.52 l 0,11.36 c -2e-5,0.50667 -0.18668,0.93334 -0.56,1.28 -0.34668,0.34667 -0.77335,0.52 -1.28,0.52 -0.50668,0 -0.93335,-0.17333 -1.28,-0.52 -0.34668,-0.34666 -0.52001,-0.77333 -0.52,-1.28 l 0,-10.96 c -1e-5,-1.51998 -0.34668,-2.70665 -1.04,-3.56 -0.66668,-0.87998 -1.78668,-1.31998 -3.35999,-1.32"
         style="text-align:center;text-anchor:middle;fill:#ffffff;font-family:Varela Round;-inkscape-font-specification:Varela Round"
         id="path3033" />
      <path
         d="m 240.51812,177.88917 c -1.97334,2.02667 -4.25334,3.04 -6.84,3.04 -2.56,0 -4.77334,-0.90666 -6.64,-2.72 -2.02666,-1.99999 -3.04,-4.62666 -3.04,-7.88 0,-3.19998 1.01334,-5.81331 3.04,-7.84 1.84,-1.83998 4.05333,-2.75998 6.64,-2.76 2.58666,2e-5 4.86666,1.01336 6.84,3.04 l 0,-9.8 c -1e-5,-0.5333 0.17332,-0.9733 0.52,-1.32 0.34665,-0.34663 0.77332,-0.51997 1.28,-0.52 0.53332,3e-5 0.97332,0.17337 1.32,0.52 0.34665,0.3467 0.51998,0.7867 0.52,1.32 l 0,25.96 c -2e-5,0.50667 -0.17335,0.93334 -0.52,1.28 -0.34668,0.34667 -0.78668,0.52 -1.32,0.52 -0.50668,0 -0.93335,-0.17333 -1.28,-0.52 -0.34668,-0.34666 -0.52001,-0.77333 -0.52,-1.28 l 0,-1.04 m 0,-11.76 c -1.81334,-1.99998 -3.92001,-2.99998 -6.32,-3 -3.04,2e-5 -5.05334,1.36002 -6.04,4.08 -0.34667,0.90668 -0.52,1.94668 -0.52,3.12 0,2.29334 0.62667,4.09334 1.88,5.4 1.14666,1.20001 2.70666,1.80001 4.68,1.8 2.39999,1e-5 4.50666,-0.99999 6.32,-3 l 0,-8.4"
         style="text-align:center;text-anchor:middle;fill:#ffffff;font-family:Varela Round;-inkscape-font-specification:Varela Round"
         id="path3035" />
      <path
         d="m 276.14312,177.88917 c -1.97334,2.02667 -4.25334,3.04 -6.83999,3.04 -2.56001,0 -4.77335,-0.90666 -6.64001,-2.72 -2.02666,-1.99999 -3.04,-4.62666 -3.03999,-7.88 -1e-5,-3.19998 1.01333,-5.81331 3.03999,-7.84 1.84,-1.83998 4.05333,-2.75998 6.64001,-2.76 2.58665,2e-5 4.86665,1.01336 6.83999,3.04 l 0,-9.8 c -1e-5,-0.5333 0.17332,-0.9733 0.52,-1.32 0.34665,-0.34663 0.77332,-0.51997 1.28,-0.52 0.53332,3e-5 0.97332,0.17337 1.32,0.52 0.34665,0.3467 0.51998,0.7867 0.52,1.32 l 0,25.96 c -2e-5,0.50667 -0.17335,0.93334 -0.52,1.28 -0.34668,0.34667 -0.78668,0.52 -1.32,0.52 -0.50668,0 -0.93335,-0.17333 -1.28,-0.52 -0.34668,-0.34666 -0.52001,-0.77333 -0.52,-1.28 l 0,-1.04 m 0,-11.76 c -1.81334,-1.99998 -3.92001,-2.99998 -6.32,-3 -3.04,2e-5 -5.05334,1.36002 -6.04,4.08 -0.34667,0.90668 -0.52,1.94668 -0.52,3.12 0,2.29334 0.62667,4.09334 1.88,5.4 1.14666,1.20001 2.70666,1.80001 4.68,1.8 2.39999,1e-5 4.50666,-0.99999 6.32,-3 l 0,-8.4"
         style="text-align:center;text-anchor:middle;fill:#ffffff;font-family:Varela Round;-inkscape-font-specification:Varela Round"
         id="path3037" />
      <path
         d="m 289.7375,163.48917 c 1.86666,-2.50664 3.95999,-3.75998 6.28,-3.76 l 0.2,0 c 0.50665,2e-5 0.91999,0.17336 1.24,0.52 0.34665,0.34669 0.51998,0.78669 0.52,1.32 -2e-5,0.50669 -0.17335,0.92002 -0.52,1.24 -0.34668,0.29335 -0.78668,0.44002 -1.32,0.44 l -0.2,0 c -1.33335,2e-5 -2.53334,0.33335 -3.6,1 -1.04001,0.64002 -1.90667,1.48002 -2.6,2.52 l 0,12.16 c -1e-5,0.50667 -0.18667,0.93334 -0.56,1.28 -0.34667,0.34667 -0.77334,0.52 -1.28,0.52 -0.50667,0 -0.93334,-0.17333 -1.28,-0.52 -0.34667,-0.34666 -0.52,-0.77333 -0.52,-1.28 l 0,-17.16 c 0,-0.50664 0.17333,-0.93331 0.52,-1.28 0.34666,-0.37331 0.77333,-0.55998 1.28,-0.56 0.50666,2e-5 0.93333,0.18669 1.28,0.56 0.37333,0.34669 0.55999,0.77336 0.56,1.28 l 0,1.72"
         style="text-align:center;text-anchor:middle;fill:#ffffff;font-family:Varela Round;-inkscape-font-specification:Varela Round"
         id="path3039" />
      <path
         d="m 310.56625,159.72917 c 3.09332,2e-5 5.57332,0.97336 7.44,2.92 1.86665,1.97335 2.79998,4.53335 2.8,7.68 -2e-5,3.14668 -0.93335,5.70667 -2.8,7.68 -1.86668,1.94667 -4.34668,2.92 -7.44,2.92 -3.12001,0 -5.60001,-0.97333 -7.44,-2.92 -1.86667,-1.94666 -2.8,-4.50666 -2.8,-7.68 0,-3.17332 0.93333,-5.73331 2.8,-7.68 1.83999,-1.94664 4.31999,-2.91998 7.44,-2.92 m -4.48,16.24 c 0.63999,0.56001 1.34666,0.97334 2.12,1.24 0.79999,0.26667 1.57332,0.40001 2.32,0.4 0.77332,1e-5 1.54665,-0.13333 2.32,-0.4 0.79998,-0.26666 1.51998,-0.67999 2.16,-1.24 1.43998,-1.30666 2.15998,-3.19999 2.16,-5.68 -2e-5,-2.39998 -0.72002,-4.26665 -2.16,-5.6 -1.20002,-1.09331 -2.68001,-1.63998 -4.44,-1.64 -2.88001,2e-5 -4.88001,1.29335 -6,3.88 -0.40001,0.93335 -0.60001,2.06668 -0.6,3.4 -10e-6,1.30668 0.19999,2.42668 0.6,3.36 0.39999,0.93334 0.90666,1.69334 1.52,2.28"
         style="text-align:center;text-anchor:middle;fill:#ffffff;font-family:Varela Round;-inkscape-font-specification:Varela Round"
         id="path3041" />
      <path
         d="m 329.50312,162.76917 c 1.97333,-2.02664 4.25333,-3.03998 6.84,-3.04 2.58666,2e-5 4.79999,0.92002 6.64,2.76 2.02665,2.02669 3.03998,4.64002 3.04,7.84 -2e-5,3.25334 -1.01335,5.88001 -3.04,7.88 -1.86668,1.81334 -4.09334,2.72 -6.67999,2.72 -2.56002,0 -4.82668,-1.01333 -6.80001,-3.04 l 0,10.2 c 0,0.53333 -0.17333,0.97333 -0.52,1.32 -0.34667,0.34666 -0.78667,0.51999 -1.32,0.52 -0.50667,-1e-5 -0.93333,-0.17334 -1.28,-0.52 -0.34667,-0.34667 -0.52,-0.78667 -0.51999,-1.32 l 0,-26.36 c -1e-5,-0.50664 0.17332,-0.93331 0.51999,-1.28 0.34667,-0.34664 0.77333,-0.51998 1.28,-0.52 0.53333,2e-5 0.97333,0.17336 1.32,0.52 0.34667,0.34669 0.52,0.77336 0.52,1.28 l 0,1.04 m 0,11.76 c 1.81333,2.00001 3.91999,3.00001 6.32,3 3.03999,1e-5 5.06665,-1.35999 6.08,-4.08 0.31999,-0.90666 0.47999,-1.94665 0.48,-3.12 -1e-5,-2.29332 -0.61335,-4.09332 -1.84,-5.4 -1.17335,-1.19998 -2.74668,-1.79998 -4.72,-1.8 -2.40001,2e-5 -4.50667,1.00002 -6.32,3 l 0,8.4"
         style="text-align:center;text-anchor:middle;fill:#ffffff;font-family:Varela Round;-inkscape-font-specification:Varela Round"
         id="path3043" />
      <path
         d="m 376.88812,159.92917 c 0.50665,2e-5 0.93332,0.18669 1.28,0.56 0.34665,0.34669 0.51998,0.72002 0.52001,1.12 -3e-5,0.37336 -0.04,0.65336 -0.12001,0.84 l -10.92,26.24 c -0.34667,0.82666 -0.90667,1.23999 -1.68,1.24 -0.48,-1e-5 -0.89334,-0.17334 -1.24,-0.52 -0.32,-0.34667 -0.48,-0.69334 -0.47999,-1.04 -1e-5,-0.34667 0.04,-0.62667 0.12,-0.84 l 2.59999,-6.68 -7.52,-18.32 c -0.10666,-0.26664 -0.16,-0.58664 -0.16,-0.96 0,-0.37331 0.17334,-0.73331 0.52001,-1.08 0.34666,-0.37331 0.73333,-0.55998 1.15999,-0.56 0.88,2e-5 1.48,0.37336 1.8,1.12 l 6.16001,15.28 6.27999,-15.2 c 0.34665,-0.79998 0.90665,-1.19998 1.68,-1.2"
         style="text-align:center;text-anchor:middle;fill:#ffffff;font-family:Varela Round;-inkscape-font-specification:Varela Round"
         id="path3045" />
      <path
         d="m 391.62094,159.72917 c 3.09332,2e-5 5.57331,0.97336 7.44,2.92 1.86664,1.97335 2.79998,4.53335 2.8,7.68 -2e-5,3.14668 -0.93336,5.70667 -2.8,7.68 -1.86669,1.94667 -4.34668,2.92 -7.44,2.92 -3.12001,0 -5.60001,-0.97333 -7.44,-2.92 -1.86667,-1.94666 -2.8,-4.50666 -2.8,-7.68 0,-3.17332 0.93333,-5.73331 2.8,-7.68 1.83999,-1.94664 4.31999,-2.91998 7.44,-2.92 m -4.48,16.24 c 0.63999,0.56001 1.34666,0.97334 2.12,1.24 0.79999,0.26667 1.57332,0.40001 2.32,0.4 0.77332,1e-5 1.54665,-0.13333 2.32,-0.4 0.79998,-0.26666 1.51998,-0.67999 2.16,-1.24 1.43998,-1.30666 2.15998,-3.19999 2.16,-5.68 -2e-5,-2.39998 -0.72002,-4.26665 -2.16,-5.6 -1.20002,-1.09331 -2.68002,-1.63998 -4.44,-1.64 -2.88001,2e-5 -4.88001,1.29335 -6,3.88 -0.40001,0.93335 -0.60001,2.06668 -0.6,3.4 -10e-6,1.30668 0.19999,2.42668 0.6,3.36 0.39999,0.93334 0.90666,1.69334 1.52,2.28"
         style="text-align:center;text-anchor:middle;fill:#ffffff;font-family:Varela Round;-inkscape-font-specification:Varela Round"
         id="path3047" />
      <path
         d="m 414.83688,177.56917 c 2.34665,10e-6 4.53331,-1.27999 6.56,-3.84 l 0,-12 c -2e-5,-0.50664 0.17331,-0.93331 0.51999,-1.28 0.37332,-0.34664 0.81332,-0.51998 1.32,-0.52 0.50665,2e-5 0.93332,0.17336 1.28001,0.52 0.34664,0.34669 0.51997,0.77336 0.51999,1.28 l 0,17.16 c -2e-5,0.53334 -0.17335,0.97334 -0.51999,1.32 -0.34669,0.34667 -0.77336,0.52 -1.28001,0.52 -0.50668,0 -0.94668,-0.17333 -1.32,-0.52 -0.34668,-0.34666 -0.52001,-0.78666 -0.51999,-1.32 l 0,-1.64 c -1.06669,1.12001 -1.98669,1.90667 -2.76001,2.36 -1.52001,0.88 -2.97334,1.32 -4.35999,1.32 -1.36001,0 -2.48001,-0.2 -3.36001,-0.6 -0.88,-0.42666 -1.62667,-1 -2.24,-1.72 -1.25333,-1.46666 -1.88,-3.30666 -1.88,-5.52 l 0,-11.36 c 0,-0.50664 0.17334,-0.93331 0.52,-1.28 0.37333,-0.34664 0.81333,-0.51998 1.32,-0.52 0.50667,2e-5 0.93333,0.17336 1.28,0.52 0.34667,0.34669 0.52,0.77336 0.52,1.28 l 0,10.96 c 0,1.52001 0.33333,2.72001 1,3.6 0.69333,0.85334 1.82666,1.28001 3.40001,1.28"
         style="text-align:center;text-anchor:middle;fill:#ffffff;font-family:Varela Round;-inkscape-font-specification:Varela Round"
         id="path3049" />
      <path
         d="m 434.97187,163.48917 c 1.86666,-2.50664 3.95999,-3.75998 6.28,-3.76 l 0.2,0 c 0.50666,2e-5 0.91999,0.17336 1.24,0.52 0.34666,0.34669 0.51999,0.78669 0.52001,1.32 -2e-5,0.50669 -0.17335,0.92002 -0.52001,1.24 -0.34668,0.29335 -0.78668,0.44002 -1.32,0.44 l -0.2,0 c -1.33334,2e-5 -2.53334,0.33335 -3.6,1 -1.04,0.64002 -1.90667,1.48002 -2.6,2.52 l 0,12.16 c 0,0.50667 -0.18667,0.93334 -0.56,1.28 -0.34667,0.34667 -0.77333,0.52 -1.28,0.52 -0.50667,0 -0.93333,-0.17333 -1.28,-0.52 -0.34667,-0.34666 -0.52,-0.77333 -0.51999,-1.28 l 0,-17.16 c -1e-5,-0.50664 0.17332,-0.93331 0.51999,-1.28 0.34667,-0.37331 0.77333,-0.55998 1.28,-0.56 0.50667,2e-5 0.93333,0.18669 1.28,0.56 0.37333,0.34669 0.56,0.77336 0.56,1.28 l 0,1.72"
         style="text-align:center;text-anchor:middle;fill:#ffffff;font-family:Varela Round;-inkscape-font-specification:Varela Round"
         id="path3051" />
      <path
         d="m 111.14687,204.64917 -2,-0.24 c -1.01334,3e-5 -1.81334,0.24003 -2.39999,0.72 -0.58668,0.45336 -0.88001,1.38669 -0.88001,2.8 l 0,2.2 5,0 c 0.45332,2e-5 0.82666,0.14669 1.12,0.44 0.29332,0.29336 0.43999,0.66669 0.44,1.12 -10e-6,0.45336 -0.14668,0.82669 -0.44,1.12 -0.29334,0.29335 -0.66668,0.44002 -1.12,0.44 l -5,0 0,15.68 c 0,0.50667 -0.17334,0.93334 -0.52,1.28 -0.34667,0.34667 -0.78667,0.52 -1.31999,0.52 -0.50668,0 -0.93334,-0.17333 -1.28,-0.52 -0.34668,-0.34666 -0.52001,-0.77333 -0.52,-1.28 l 0,-15.68 -2.360005,0 c -0.453335,2e-5 -0.826668,-0.14665 -1.12,-0.44 -0.293334,-0.29331 -0.440001,-0.66664 -0.44,-1.12 -1e-6,-0.45331 0.146666,-0.82664 0.44,-1.12 0.293332,-0.29331 0.666665,-0.43998 1.12,-0.44 l 2.360005,0 0,-2.32 c -10e-6,-2.31997 0.65332,-4.10664 1.96,-5.36 1.06665,-1.0133 2.41332,-1.51997 4.04,-1.52 1.25332,3e-5 2.41332,0.2667 3.47999,0.8 0.61332,0.3467 0.91999,0.76003 0.92,1.24 -1e-5,0.48003 -0.14668,0.88003 -0.43999,1.2 -0.26669,0.32003 -0.61335,0.48003 -1.04001,0.48"
         style="text-align:center;text-anchor:middle;fill:#ffffff;font-family:Varela Round;-inkscape-font-specification:Varela Round"
         id="path3053" />
      <path
         d="m 116.10125,211.76917 c 0,-0.53331 0.17333,-0.97331 0.52,-1.32 0.34666,-0.34664 0.77333,-0.51998 1.28,-0.52 0.53333,2e-5 0.97333,0.17336 1.32,0.52 0.34666,0.34669 0.51999,0.78669 0.52,1.32 l 0,17.16 c -10e-6,0.50667 -0.17334,0.93334 -0.52,1.28 -0.34667,0.34667 -0.78667,0.52 -1.32,0.52 -0.50667,0 -0.93334,-0.17333 -1.28,-0.52 -0.34667,-0.34666 -0.52,-0.77333 -0.52,-1.28 l 0,-17.16 m 4,-7.84 c -10e-6,0.56003 -0.20001,1.04003 -0.6,1.44 -0.40001,0.40003 -0.88001,0.60003 -1.44,0.6 l -0.24,0 c -0.56,3e-5 -1.04,-0.19997 -1.44,-0.6 -0.4,-0.39997 -0.6,-0.87997 -0.6,-1.44 l 0,-0.16 c 0,-0.55997 0.2,-1.03997 0.6,-1.44 0.4,-0.39997 0.88,-0.59997 1.44,-0.6 l 0.24,0 c 0.55999,3e-5 1.03999,0.20003 1.44,0.6 0.39999,0.40003 0.59999,0.88003 0.6,1.44 l 0,0.16"
         style="text-align:center;text-anchor:middle;fill:#ffffff;font-family:Varela Round;-inkscape-font-specification:Varela Round"
         id="path3055" />
      <path
         d="m 126.57375,202.96917 c 0,-0.5333 0.17333,-0.9733 0.52,-1.32 0.34666,-0.34663 0.77333,-0.51997 1.28,-0.52 0.53333,3e-5 0.97333,0.17337 1.32,0.52 0.34666,0.3467 0.51999,0.7867 0.52,1.32 l 0,25.96 c -1e-5,0.50667 -0.17334,0.93334 -0.52,1.28 -0.34667,0.34667 -0.78667,0.52 -1.32,0.52 -0.50667,0 -0.93334,-0.17333 -1.28,-0.52 -0.34667,-0.34666 -0.52,-0.77333 -0.52,-1.28 l 0,-25.96"
         style="text-align:center;text-anchor:middle;fill:#ffffff;font-family:Varela Round;-inkscape-font-specification:Varela Round"
         id="path3057" />
      <path
         d="m 139.35875,221.60917 c 0.21333,1.81334 0.89333,3.25334 2.04,4.32 1.14666,1.06667 2.74666,1.60001 4.8,1.6 2.05332,1e-5 3.77332,-0.34666 5.16,-1.04 0.47998,-0.23999 0.89331,-0.35999 1.24,-0.36 0.34665,1e-5 0.67998,0.14667 1,0.44 0.31998,0.29334 0.47998,0.62667 0.48,1 -2e-5,0.69334 -0.29335,1.20001 -0.88,1.52 -0.56002,0.29334 -1.06669,0.54667 -1.52,0.76 -0.45335,0.21334 -0.94668,0.4 -1.48,0.56 -1.20002,0.34667 -2.58668,0.52 -4.16,0.52 -3.28001,0 -5.82667,-0.92 -7.64,-2.76 -1.81334,-1.83999 -2.72,-4.45332 -2.72,-7.84 0,-2.93332 0.76,-5.37331 2.28,-7.32 1.70666,-2.18664 4.13332,-3.27998 7.28,-3.28 2.98665,2e-5 5.34665,1.01336 7.08,3.04 1.62665,1.89335 2.43998,4.24002 2.44,7.04 -2e-5,0.50668 -0.17335,0.93335 -0.52,1.28 -0.32002,0.34668 -0.76002,0.52001 -1.32,0.52 l -13.56,0 m 5.88,-8.8 c -2.37334,2e-5 -4.10667,1.05335 -5.2,3.16 -0.40001,0.74668 -0.62667,1.64002 -0.68,2.68 l 11.8,0 c -0.10668,-1.89332 -0.80002,-3.38665 -2.08,-4.48 -1.06668,-0.90665 -2.34668,-1.35998 -3.84,-1.36"
         style="text-align:center;text-anchor:middle;fill:#ffffff;font-family:Varela Round;-inkscape-font-specification:Varela Round"
         id="path3059" />
      <path
         d="m 166.17125,227.56917 c 2.95999,10e-6 4.43999,-0.94666 4.44,-2.84 -1e-5,-0.58666 -0.29335,-1.02666 -0.88,-1.32 -0.58668,-0.31999 -1.33335,-0.59999 -2.24,-0.84 -0.88001,-0.23999 -1.84001,-0.47999 -2.88,-0.72 -1.04001,-0.26665 -2.01334,-0.62665 -2.92,-1.08 -0.88,-0.45332 -1.61334,-1.03999 -2.2,-1.76 -0.58667,-0.74665 -0.88,-1.65332 -0.88,-2.72 0,-1.06665 0.16,-1.98665 0.48,-2.76 0.32,-0.77331 0.8,-1.43998 1.44,-2 1.41333,-1.19998 3.37333,-1.79998 5.88,-1.8 1.99999,2e-5 3.93332,0.33336 5.8,1 0.37332,0.13336 0.65332,0.34669 0.84,0.64 0.21332,0.29336 0.31998,0.62669 0.32,1 -2e-5,0.34669 -0.16002,0.68002 -0.48,1 -0.29335,0.32002 -0.58668,0.48002 -0.88,0.48 -0.29335,2e-5 -0.65335,-0.0666 -1.08,-0.2 -1.28001,-0.39998 -2.68001,-0.59998 -4.2,-0.6 -1.52001,2e-5 -2.68001,0.26669 -3.48,0.8 -0.77334,0.53335 -1.16001,1.17335 -1.16,1.92 -1e-5,0.74668 0.29333,1.30668 0.88,1.68 0.61333,0.34668 1.35999,0.64002 2.24,0.88 0.87999,0.24002 1.83999,0.48002 2.88,0.72 1.06665,0.24001 2.03999,0.57335 2.92,1 2.07998,1.06668 3.11998,2.72001 3.12,4.96 -2e-5,1.70667 -0.64002,3.09334 -1.92,4.16 -1.38668,1.17334 -3.32001,1.76 -5.8,1.76 -2.69334,0 -5.12,-0.6 -7.28,-1.8 -0.45334,-0.31999 -0.68,-0.71999 -0.68,-1.2 0,-0.47999 0.14666,-0.87999 0.44,-1.2 0.29333,-0.34666 0.61333,-0.51999 0.96,-0.52 0.34666,1e-5 0.76,0.10667 1.24,0.32 1.54666,0.69334 3.23999,1.04001 5.08,1.04"
         style="text-align:center;text-anchor:middle;fill:#ffffff;font-family:Varela Round;-inkscape-font-specification:Varela Round"
         id="path3061" />
      <path
         d="m 196.74062,227.72917 c 0.71999,1e-5 1.22666,-0.0533 1.52,-0.16 0.31999,-0.13333 0.65333,-0.19999 1,-0.2 0.37332,1e-5 0.70666,0.13334 1,0.4 0.29332,0.26667 0.43999,0.66667 0.44,1.2 -10e-6,0.53334 -0.26668,0.92 -0.8,1.16 -1.14667,0.53334 -2.13334,0.8 -2.96,0.8 -0.80001,0 -1.53334,-0.04 -2.2,-0.12 -0.66667,-0.08 -1.30667,-0.30666 -1.92,-0.68 -1.46667,-0.85333 -2.2,-2.34666 -2.2,-4.48 l 0,-12.4 -2.84,0 c -0.50666,2e-5 -0.76,-0.25331 -0.76,-0.76 0,-0.23998 0.12,-0.46664 0.36,-0.68 l 5.44,-5.32 c 0.24,-0.23997 0.46666,-0.35997 0.68001,-0.36 0.21332,3e-5 0.38665,0.08 0.51999,0.24 0.16,0.16003 0.24,0.34669 0.24,0.56 l 0,3.2 4.52,0 c 0.45333,2e-5 0.82666,0.14669 1.12,0.44 0.29332,0.29336 0.43999,0.66669 0.44,1.12 -1e-5,0.45336 -0.14668,0.82669 -0.44,1.12 -0.29334,0.29335 -0.66667,0.44002 -1.12,0.44 l -4.52,0 0,12.08 c 0,1.01334 0.30666,1.70667 0.92,2.08 0.34666,0.21334 0.86666,0.32001 1.56,0.32"
         style="text-align:center;text-anchor:middle;fill:#ffffff;font-family:Varela Round;-inkscape-font-specification:Varela Round"
         id="path3063" />
      <path
         d="m 213.69125,209.72917 c 3.09332,2e-5 5.57332,0.97336 7.44,2.92 1.86665,1.97335 2.79998,4.53335 2.8,7.68 -2e-5,3.14668 -0.93335,5.70667 -2.8,7.68 -1.86668,1.94667 -4.34668,2.92 -7.44,2.92 -3.12001,0 -5.60001,-0.97333 -7.44,-2.92 -1.86667,-1.94666 -2.8,-4.50666 -2.8,-7.68 0,-3.17332 0.93333,-5.73331 2.8,-7.68 1.83999,-1.94664 4.31999,-2.91998 7.44,-2.92 m -4.48,16.24 c 0.63999,0.56001 1.34666,0.97334 2.12,1.24 0.79999,0.26667 1.57332,0.40001 2.32,0.4 0.77332,1e-5 1.54665,-0.13333 2.32,-0.4 0.79998,-0.26666 1.51998,-0.67999 2.16,-1.24 1.43998,-1.30666 2.15998,-3.19999 2.16,-5.68 -2e-5,-2.39998 -0.72002,-4.26665 -2.16,-5.6 -1.20002,-1.09331 -2.68001,-1.63998 -4.44,-1.64 -2.88001,2e-5 -4.88001,1.29335 -6,3.88 -0.40001,0.93335 -0.60001,2.06668 -0.6,3.4 -1e-5,1.30668 0.19999,2.42668 0.6,3.36 0.39999,0.93334 0.90666,1.69334 1.52,2.28"
         style="text-align:center;text-anchor:middle;fill:#ffffff;font-family:Varela Round;-inkscape-font-specification:Varela Round"
         id="path3065" />
      <path
         d="m 240.13875,211.16917 c 2.23999,-0.95998 4.55999,-1.43998 6.96,-1.44 2.71999,2e-5 4.82665,0.82669 6.32,2.48 1.33331,1.44002 1.99998,3.24002 2,5.4 l 0,11.32 c -2e-5,0.50667 -0.18669,0.93334 -0.56,1.28 -0.34668,0.34667 -0.77335,0.52 -1.28,0.52 -0.50668,0 -0.93335,-0.17333 -1.28,-0.52 -0.34668,-0.34666 -0.52002,-0.77333 -0.52,-1.28 l 0,-1.04 c -0.72001,0.74667 -1.69335,1.44 -2.92,2.08 -1.20001,0.64 -2.73334,0.96 -4.6,0.96 -1.84001,0 -3.37334,-0.53333 -4.6,-1.6 -1.28,-1.11999 -1.92,-2.58666 -1.92,-4.4 0,-1.97332 0.74666,-3.51999 2.24,-4.64 1.62666,-1.22665 3.94666,-1.83998 6.96,-1.84 l 4.84,0 0,-0.32 c -2e-5,-1.78665 -0.44002,-3.05331 -1.32,-3.8 -0.88001,-0.77331 -2.22668,-1.15998 -4.04,-1.16 -1.54668,2e-5 -3.32001,0.32002 -5.32,0.96 -0.21334,0.0534 -0.45334,0.08 -0.72,0.08 -0.26667,2e-5 -0.54667,-0.13331 -0.84,-0.4 -0.29334,-0.29331 -0.44,-0.73331 -0.44,-1.32 0,-0.58664 0.34666,-1.02664 1.04,-1.32 m 1.24,13.36 c -1e-5,2.13334 1.41333,3.20001 4.24,3.2 1.25332,1e-5 2.41332,-0.30666 3.48,-0.92 1.09332,-0.61333 1.98665,-1.30666 2.68,-2.08 l 0,-3.36 -4.36,0 c -1.89334,1e-5 -3.37334,0.24001 -4.44,0.72 -1.06667,0.48001 -1.60001,1.29334 -1.6,2.44"
         style="text-align:center;text-anchor:middle;fill:#ffffff;font-family:Varela Round;-inkscape-font-specification:Varela Round"
         id="path3067" />
      <path
         d="m 276.84625,227.88917 c -1.97335,2.02667 -4.25335,3.04 -6.84,3.04 -2.56001,0 -4.77334,-0.90666 -6.64,-2.72 -2.02667,-1.99999 -3.04,-4.62666 -3.04,-7.88 0,-3.19998 1.01333,-5.81331 3.04,-7.84 1.83999,-1.83998 4.05332,-2.75998 6.64,-2.76 2.58665,2e-5 4.86665,1.01336 6.84,3.04 l 0,-9.8 c -2e-5,-0.5333 0.17331,-0.9733 0.52,-1.32 0.34665,-0.34663 0.77331,-0.51997 1.28,-0.52 0.53331,3e-5 0.97331,0.17337 1.32,0.52 0.34664,0.3467 0.51998,0.7867 0.52,1.32 l 0,25.96 c -2e-5,0.50667 -0.17336,0.93334 -0.52,1.28 -0.34669,0.34667 -0.78669,0.52 -1.32,0.52 -0.50669,0 -0.93335,-0.17333 -1.28,-0.52 -0.34669,-0.34666 -0.52002,-0.77333 -0.52,-1.28 l 0,-1.04 m 0,-11.76 c -1.81335,-1.99998 -3.92001,-2.99998 -6.32,-3 -3.04001,2e-5 -5.05334,1.36002 -6.04,4.08 -0.34667,0.90668 -0.52001,1.94668 -0.52,3.12 -10e-6,2.29334 0.62666,4.09334 1.88,5.4 1.14666,1.20001 2.70666,1.80001 4.68,1.8 2.39999,1e-5 4.50665,-0.99999 6.32,-3 l 0,-8.4"
         style="text-align:center;text-anchor:middle;fill:#ffffff;font-family:Varela Round;-inkscape-font-specification:Varela Round"
         id="path3069" />
      <path
         d="m 302.08062,227.88917 c -1.97334,2.02667 -4.25334,3.04 -6.83999,3.04 -2.56001,0 -4.77335,-0.90666 -6.64001,-2.72 -2.02666,-1.99999 -3.04,-4.62666 -3.03999,-7.88 -1e-5,-3.19998 1.01333,-5.81331 3.03999,-7.84 1.84,-1.83998 4.05333,-2.75998 6.64001,-2.76 2.58665,2e-5 4.86665,1.01336 6.83999,3.04 l 0,-9.8 c -1e-5,-0.5333 0.17332,-0.9733 0.52,-1.32 0.34665,-0.34663 0.77332,-0.51997 1.28,-0.52 0.53332,3e-5 0.97332,0.17337 1.32,0.52 0.34665,0.3467 0.51998,0.7867 0.52,1.32 l 0,25.96 c -2e-5,0.50667 -0.17335,0.93334 -0.52,1.28 -0.34668,0.34667 -0.78668,0.52 -1.32,0.52 -0.50668,0 -0.93335,-0.17333 -1.28,-0.52 -0.34668,-0.34666 -0.52001,-0.77333 -0.52,-1.28 l 0,-1.04 m 0,-11.76 c -1.81334,-1.99998 -3.92001,-2.99998 -6.32,-3 -3.04,2e-5 -5.05334,1.36002 -6.04,4.08 -0.34667,0.90668 -0.52,1.94668 -0.52,3.12 0,2.29334 0.62667,4.09334 1.88,5.4 1.14666,1.20001 2.70666,1.80001 4.68,1.8 2.39999,1e-5 4.50666,-0.99999 6.32,-3 l 0,-8.4"
         style="text-align:center;text-anchor:middle;fill:#ffffff;font-family:Varela Round;-inkscape-font-specification:Varela Round"
         id="path3071" />
      <path
         d="m 329.86563,227.72917 c 0.71998,1e-5 1.22665,-0.0533 1.51999,-0.16 0.31999,-0.13333 0.65333,-0.19999 1,-0.2 0.37332,1e-5 0.70666,0.13334 1,0.4 0.29332,0.26667 0.43999,0.66667 0.44,1.2 -1e-5,0.53334 -0.26668,0.92 -0.8,1.16 -1.14667,0.53334 -2.13334,0.8 -2.96,0.8 -0.8,0 -1.53334,-0.04 -2.19999,-0.12 -0.66668,-0.08 -1.30668,-0.30666 -1.92001,-0.68 -1.46667,-0.85333 -2.2,-2.34666 -2.19999,-4.48 l 0,-12.4 -2.84001,0 c -0.50666,2e-5 -0.76,-0.25331 -0.76,-0.76 0,-0.23998 0.12,-0.46664 0.36,-0.68 l 5.44,-5.32 c 0.24,-0.23997 0.46666,-0.35997 0.68001,-0.36 0.21332,3e-5 0.38665,0.08 0.51999,0.24 0.16,0.16003 0.24,0.34669 0.24,0.56 l 0,3.2 4.52,0 c 0.45333,2e-5 0.82666,0.14669 1.12,0.44 0.29332,0.29336 0.43999,0.66669 0.44,1.12 -10e-6,0.45336 -0.14668,0.82669 -0.44,1.12 -0.29334,0.29335 -0.66667,0.44002 -1.12,0.44 l -4.52,0 0,12.08 c 0,1.01334 0.30666,1.70667 0.92001,2.08 0.34665,0.21334 0.86665,0.32001 1.56,0.32"
         style="text-align:center;text-anchor:middle;fill:#ffffff;font-family:Varela Round;-inkscape-font-specification:Varela Round"
         id="path3073" />
      <path
         d="m 348.01625,213.08917 c -2.34668,2e-5 -4.53334,1.28002 -6.56,3.84 l 0,12 c -1e-5,0.50667 -0.18667,0.93334 -0.56,1.28 -0.34667,0.34667 -0.77334,0.52 -1.28,0.52 -0.50667,0 -0.93334,-0.17333 -1.28,-0.52 -0.34667,-0.34666 -0.52,-0.77333 -0.52,-1.28 l 0,-25.96 c 0,-0.5333 0.17333,-0.9733 0.52,-1.32 0.34666,-0.34663 0.77333,-0.51997 1.28,-0.52 0.50666,3e-5 0.93333,0.17337 1.28,0.52 0.37333,0.3467 0.55999,0.7867 0.56,1.32 l 0,10.44 c 1.06666,-1.11998 1.98666,-1.90664 2.76,-2.36 1.51999,-0.87998 2.95999,-1.31998 4.32,-1.32 1.38665,2e-5 2.51998,0.21336 3.4,0.64 0.87998,0.40002 1.62665,0.96002 2.24,1.68 1.25331,1.46669 1.87998,3.30669 1.88,5.52 l 0,11.36 c -2e-5,0.50667 -0.18669,0.93334 -0.56,1.28 -0.34669,0.34667 -0.77335,0.52 -1.28,0.52 -0.50669,0 -0.93335,-0.17333 -1.28,-0.52 -0.34668,-0.34666 -0.52002,-0.77333 -0.52,-1.28 l 0,-10.96 c -2e-5,-1.51998 -0.34668,-2.70665 -1.04,-3.56 -0.66668,-0.87998 -1.78668,-1.31998 -3.36,-1.32"
         style="text-align:center;text-anchor:middle;fill:#ffffff;font-family:Varela Round;-inkscape-font-specification:Varela Round"
         id="path3075" />
      <path
         d="m 364.67125,221.60917 c 0.21333,1.81334 0.89333,3.25334 2.04,4.32 1.14666,1.06667 2.74666,1.60001 4.8,1.6 2.05332,1e-5 3.77332,-0.34666 5.16,-1.04 0.47998,-0.23999 0.89331,-0.35999 1.24,-0.36 0.34665,1e-5 0.67998,0.14667 1,0.44 0.31998,0.29334 0.47998,0.62667 0.48,1 -2e-5,0.69334 -0.29335,1.20001 -0.88,1.52 -0.56002,0.29334 -1.06669,0.54667 -1.52,0.76 -0.45335,0.21334 -0.94668,0.4 -1.48,0.56 -1.20002,0.34667 -2.58668,0.52 -4.16,0.52 -3.28001,0 -5.82667,-0.92 -7.64,-2.76 -1.81334,-1.83999 -2.72,-4.45332 -2.72,-7.84 0,-2.93332 0.76,-5.37331 2.28,-7.32 1.70666,-2.18664 4.13332,-3.27998 7.28,-3.28 2.98665,2e-5 5.34665,1.01336 7.08,3.04 1.62665,1.89335 2.43998,4.24002 2.44,7.04 -2e-5,0.50668 -0.17335,0.93335 -0.52,1.28 -0.32002,0.34668 -0.76002,0.52001 -1.32,0.52 l -13.56,0 m 5.88,-8.8 c -2.37334,2e-5 -4.10667,1.05335 -5.2,3.16 -0.40001,0.74668 -0.62667,1.64002 -0.68,2.68 l 11.8,0 c -0.10668,-1.89332 -0.80002,-3.38665 -2.08,-4.48 -1.06668,-0.90665 -2.34668,-1.35998 -3.84,-1.36"
         style="text-align:center;text-anchor:middle;fill:#ffffff;font-family:Varela Round;-inkscape-font-specification:Varela Round"
         id="path3077" />
      <path
         d="m 388.64375,213.40917 c 1.62666,-2.45331 3.89332,-3.67998 6.8,-3.68 1.43998,2e-5 2.74665,0.42669 3.92,1.28 0.95998,0.66669 1.69331,1.61335 2.2,2.84 0.74665,-1.17331 1.47998,-1.99998 2.2,-2.48 1.51998,-1.09331 3.23997,-1.63998 5.16,-1.64 2.15997,2e-5 3.8533,0.82669 5.08,2.48 1.06663,1.41335 1.59997,3.14669 1.6,5.2 l 0,11.52 c -3e-5,0.50667 -0.1867,0.93334 -0.56,1.28 -0.3467,0.34667 -0.77337,0.52 -1.28,0.52 -0.5067,0 -0.93336,-0.17333 -1.28,-0.52 -0.3467,-0.34666 -0.52003,-0.77333 -0.52,-1.28 l 0,-10.8 c -3e-5,-1.67998 -0.3067,-2.93331 -0.92,-3.76 -0.5867,-0.85331 -1.64003,-1.27998 -3.16,-1.28 -2.34669,2e-5 -4.26669,1.28002 -5.76,3.84 l 0,12 c -2e-5,0.50667 -0.18669,0.93334 -0.56,1.28 -0.34669,0.34667 -0.77335,0.52 -1.28,0.52 -0.50668,0 -0.93335,-0.17333 -1.28,-0.52 -0.34668,-0.34666 -0.52002,-0.77333 -0.52,-1.28 l 0,-10.8 c -2e-5,-1.67998 -0.30668,-2.93331 -0.92,-3.76 -0.58668,-0.85331 -1.64001,-1.27998 -3.16,-1.28 -2.34668,2e-5 -4.26667,1.28002 -5.76,3.84 l 0,12 c -1e-5,0.50667 -0.18667,0.93334 -0.56,1.28 -0.34667,0.34667 -0.77334,0.52 -1.28,0.52 -0.50667,0 -0.93334,-0.17333 -1.28,-0.52 -0.34667,-0.34666 -0.52,-0.77333 -0.52,-1.28 l 0,-17.16 c 0,-0.50664 0.17333,-0.93331 0.52,-1.28 0.34666,-0.37331 0.77333,-0.55998 1.28,-0.56 0.50666,2e-5 0.93333,0.18669 1.28,0.56 0.37333,0.34669 0.55999,0.77336 0.56,1.28 l 0,1.64"
         style="text-align:center;text-anchor:middle;fill:#ffffff;font-family:Varela Round;-inkscape-font-specification:Varela Round"
         id="path3079" />
    </g>
    <flowRoot
       xml:space="preserve"
       id="flowRoot3763"
       style="fill:black;stroke:none;stroke-opacity:1;stroke-width:1px;stroke-linejoin:miter;stroke-linecap:butt;fill-opacity:1;font-family:Varela Round;font-style:normal;font-weight:normal;font-size:40px;line-height:125%;letter-spacing:0px;word-spacing:0px;-inkscape-font-specification:Varela Round;font-stretch:normal;font-variant:normal"><flowRegion
         id="flowRegion3765"><rect
           id="rect3767"
           width="335.37064"
           height="50.507626"
           x="78.791901"
           y="140.3857"
           style="-inkscape-font-specification:Varela Round;font-family:Varela Round;font-weight:normal;font-style:normal;font-stretch:normal;font-variant:normal" /></flowRegion><flowPara
         id="flowPara3769" /></flowRoot>    <g
       transform="translate(154.88411,321.63796)"
       style="font-size:40px;font-style:normal;font-variant:normal;font-weight:normal;font-stretch:normal;line-height:125%;letter-spacing:0px;word-spacing:0px;fill:#ffffff;fill-opacity:1;stroke:none;font-family:Varela Round;-inkscape-font-specification:Varela Round"
       id="flowRoot3771">
      <path
         d="m 104.20225,135.403 c 0.28799,2e-5 0.52799,0.10402 0.72,0.312 0.20799,0.19202 0.31199,0.43202 0.312,0.72 -1e-5,0.28802 -0.10401,0.52802 -0.312,0.72 -0.19201,0.19202 -0.43201,0.28802 -0.72,0.288 l -4.872,0 0,13.752 c -8e-6,0.304 -0.112008,0.56 -0.336,0.768 -0.208008,0.208 -0.464008,0.312 -0.768,0.312 -0.304007,0 -0.560007,-0.104 -0.768,-0.312 -0.208006,-0.208 -0.312006,-0.464 -0.312,-0.768 l 0,-13.752 -4.896,0 c -0.288001,2e-5 -0.528001,-0.096 -0.72,-0.288 -0.192,-0.19198 -0.288,-0.43198 -0.288,-0.72 0,-0.28798 0.096,-0.52798 0.288,-0.72 0.191999,-0.20798 0.431999,-0.31198 0.72,-0.312 l 11.952,0"
         style="font-size:24px;font-family:Varela Round;-inkscape-font-specification:Varela Round;fill:#ffffff"
         id="path3082" />
      <path
         d="m 113.47694,141.691 c -1.40801,1e-5 -2.72001,0.76801 -3.936,2.304 l 0,7.2 c -1e-5,0.304 -0.11201,0.56 -0.336,0.768 -0.20801,0.208 -0.46401,0.312 -0.768,0.312 -0.30401,0 -0.56,-0.104 -0.768,-0.312 -0.208,-0.208 -0.312,-0.464 -0.312,-0.768 l 0,-15.576 c 0,-0.31998 0.104,-0.58398 0.312,-0.792 0.208,-0.20798 0.46399,-0.31198 0.768,-0.312 0.30399,2e-5 0.55999,0.10402 0.768,0.312 0.22399,0.20802 0.33599,0.47202 0.336,0.792 l 0,6.264 c 0.63999,-0.67198 1.19199,-1.14398 1.656,-1.416 0.91199,-0.52798 1.77599,-0.79198 2.592,-0.792 0.83199,2e-5 1.51199,0.12802 2.04,0.384 0.52799,0.24002 0.97599,0.57602 1.344,1.008 0.75199,0.88001 1.12798,1.98401 1.128,3.312 l 0,6.816 c -2e-5,0.304 -0.11202,0.56 -0.336,0.768 -0.20801,0.208 -0.46401,0.312 -0.768,0.312 -0.30401,0 -0.56001,-0.104 -0.768,-0.312 -0.20801,-0.208 -0.31201,-0.464 -0.312,-0.768 l 0,-6.576 c -1e-5,-0.91199 -0.20801,-1.62399 -0.624,-2.136 -0.40001,-0.52799 -1.07201,-0.79199 -2.016,-0.792"
         style="font-size:24px;font-family:Varela Round;-inkscape-font-specification:Varela Round;fill:#ffffff"
         id="path3084" />
      <path
         d="m 123.49338,146.803 c 0.12799,1.08801 0.53599,1.95201 1.224,2.592 0.68799,0.64001 1.64799,0.96001 2.88,0.96 1.23199,1e-5 2.26399,-0.20799 3.09599,-0.624 0.28799,-0.14399 0.53599,-0.21599 0.744,-0.216 0.20799,1e-5 0.40799,0.088 0.6,0.264 0.19199,0.17601 0.28799,0.37601 0.288,0.6 -1e-5,0.41601 -0.17601,0.72001 -0.528,0.912 -0.33601,0.176 -0.64001,0.328 -0.912,0.456 -0.27201,0.128 -0.56801,0.24 -0.888,0.336 -0.72,0.208 -1.552,0.312 -2.496,0.312 -1.968,0 -3.496,-0.552 -4.58399,-1.656 -1.08801,-1.10399 -1.63201,-2.67199 -1.632,-4.704 -1e-5,-1.75999 0.45599,-3.22399 1.36799,-4.392 1.024,-1.31198 2.48,-1.96798 4.36801,-1.968 1.79199,2e-5 3.20798,0.60802 4.24799,1.824 0.97599,1.13601 1.46399,2.54401 1.464,4.224 -1e-5,0.30401 -0.10401,0.56001 -0.312,0.768 -0.19201,0.20801 -0.45601,0.31201 -0.792,0.312 l -8.13599,0 m 3.528,-5.28 c -1.42401,1e-5 -2.46401,0.63201 -3.12,1.896 -0.24001,0.44801 -0.37601,0.98401 -0.408,1.608 l 7.07999,0 c -0.064,-1.13599 -0.48,-2.03199 -1.248,-2.688 -0.64,-0.54399 -1.408,-0.81599 -2.30399,-0.816"
         style="font-size:24px;font-family:Varela Round;-inkscape-font-specification:Varela Round;fill:#ffffff"
         id="path3086" />
      <path
         d="m 137.87687,141.931 c 1.12,-1.50398 2.376,-2.25598 3.76801,-2.256 l 0.11999,0 c 0.304,2e-5 0.552,0.10402 0.744,0.312 0.208,0.20802 0.312,0.47202 0.312,0.792 0,0.30402 -0.104,0.55201 -0.312,0.744 -0.208,0.17601 -0.472,0.26401 -0.792,0.264 l -0.12,0 c -0.8,1e-5 -1.52,0.20001 -2.16,0.6 -0.624,0.38401 -1.144,0.88801 -1.56,1.512 l 0,7.296 c 0,0.304 -0.112,0.56 -0.336,0.768 -0.208,0.208 -0.464,0.312 -0.768,0.312 -0.304,0 -0.56,-0.104 -0.768,-0.312 -0.208,-0.208 -0.312,-0.464 -0.312,-0.768 l 0,-10.296 c 0,-0.30398 0.104,-0.55998 0.312,-0.768 0.208,-0.22398 0.464,-0.33598 0.768,-0.336 0.304,2e-5 0.56,0.11202 0.768,0.336 0.224,0.20802 0.336,0.46402 0.336,0.768 l 0,1.032"
         style="font-size:24px;font-family:Varela Round;-inkscape-font-specification:Varela Round;fill:#ffffff"
         id="path3088" />
      <path
         d="m 146.46213,146.803 c 0.12799,1.08801 0.53599,1.95201 1.22399,2.592 0.688,0.64001 1.648,0.96001 2.88,0.96 1.232,1e-5 2.264,-0.20799 3.096,-0.624 0.28799,-0.14399 0.53599,-0.21599 0.744,-0.216 0.20799,1e-5 0.40799,0.088 0.6,0.264 0.19199,0.17601 0.28799,0.37601 0.288,0.6 -1e-5,0.41601 -0.17601,0.72001 -0.528,0.912 -0.33601,0.176 -0.64001,0.328 -0.912,0.456 -0.27201,0.128 -0.56801,0.24 -0.888,0.336 -0.72,0.208 -1.552,0.312 -2.496,0.312 -1.968,0 -3.496,-0.552 -4.584,-1.656 -1.088,-1.10399 -1.632,-2.67199 -1.632,-4.704 0,-1.75999 0.456,-3.22399 1.368,-4.392 1.024,-1.31198 2.48,-1.96798 4.368,-1.968 1.792,2e-5 3.20799,0.60802 4.248,1.824 0.97599,1.13601 1.46399,2.54401 1.464,4.224 -1e-5,0.30401 -0.10401,0.56001 -0.312,0.768 -0.19201,0.20801 -0.45601,0.31201 -0.792,0.312 l -8.13599,0 m 3.52799,-5.28 c -1.424,1e-5 -2.464,0.63201 -3.12,1.896 -0.24,0.44801 -0.376,0.98401 -0.40799,1.608 l 7.07999,0 c -0.064,-1.13599 -0.48,-2.03199 -1.248,-2.688 -0.64,-0.54399 -1.408,-0.81599 -2.304,-0.816"
         style="font-size:24px;font-family:Varela Round;-inkscape-font-specification:Varela Round;fill:#ffffff"
         id="path3090" />
      <path
         d="m 159.72437,134.323 c 0.368,2e-5 0.68,0.13602 0.936,0.408 0.272,0.25602 0.408,0.56802 0.408,0.936 l 0,1.416 c 0,0.84802 -0.216,1.60002 -0.648,2.256 -0.304,0.48002 -0.744,0.89602 -1.31999,1.248 -0.08,0.08 -0.22401,0.12002 -0.43201,0.12 -0.192,2e-5 -0.352,-0.072 -0.48,-0.216 -0.128,-0.14398 -0.192,-0.32798 -0.192,-0.552 0,-0.22398 0.12,-0.40798 0.36001,-0.552 0.35199,-0.20798 0.63999,-0.46398 0.86399,-0.768 0.24,-0.31998 0.36,-0.80798 0.36,-1.464 l -0.096,0 c -0.368,2e-5 -0.688,-0.12798 -0.96,-0.384 -0.256,-0.27198 -0.384,-0.59198 -0.384,-0.96 l 0,-0.144 c 0,-0.36798 0.128,-0.67998 0.384,-0.936 0.272,-0.27198 0.592,-0.40798 0.96,-0.408 l 0.24,0"
         style="font-size:24px;font-family:Varela Round;-inkscape-font-specification:Varela Round;fill:#ffffff"
         id="path3092" />
      <path
         d="m 167.61212,150.379 c 1.776,1e-5 2.664,-0.56799 2.664,-1.704 0,-0.35199 -0.176,-0.61599 -0.528,-0.792 -0.352,-0.19199 -0.8,-0.35999 -1.344,-0.504 -0.528,-0.14399 -1.104,-0.28799 -1.72799,-0.432 -0.62401,-0.15999 -1.20801,-0.37599 -1.75201,-0.648 -0.528,-0.27199 -0.968,-0.62399 -1.32,-1.056 -0.352,-0.44799 -0.528,-0.99199 -0.528,-1.632 0,-0.63999 0.096,-1.19199 0.288,-1.656 0.192,-0.46399 0.48,-0.86398 0.864,-1.2 0.848,-0.71998 2.024,-1.07998 3.528,-1.08 1.2,2e-5 2.36,0.20002 3.48001,0.6 0.22399,0.08 0.39199,0.20802 0.50399,0.384 0.12799,0.17602 0.19199,0.37602 0.192,0.6 -1e-5,0.20801 -0.096,0.40801 -0.288,0.6 -0.176,0.19201 -0.352,0.28801 -0.528,0.288 -0.176,1e-5 -0.392,-0.04 -0.648,-0.12 -0.768,-0.23999 -1.608,-0.35999 -2.52,-0.36 -0.912,1e-5 -1.608,0.16001 -2.088,0.48 -0.464,0.32001 -0.696,0.70401 -0.69599,1.152 -1e-5,0.44801 0.17599,0.78401 0.52799,1.008 0.368,0.20801 0.816,0.38401 1.344,0.528 0.528,0.14401 1.104,0.28801 1.728,0.432 0.64,0.14401 1.224,0.34401 1.752,0.6 1.248,0.64001 1.87199,1.63201 1.872,2.976 -10e-6,1.02401 -0.38401,1.85601 -1.15199,2.496 -0.83201,0.704 -1.99201,1.056 -3.48001,1.056 -1.616,0 -3.072,-0.36 -4.368,-1.08 -0.272,-0.19199 -0.408,-0.43199 -0.408,-0.72 0,-0.28799 0.088,-0.52799 0.264,-0.72 0.176,-0.20799 0.368,-0.31199 0.576,-0.312 0.208,1e-5 0.456,0.064 0.744,0.192 0.928,0.41601 1.944,0.62401 3.048,0.624"
         style="font-size:24px;font-family:Varela Round;-inkscape-font-specification:Varela Round;fill:#ffffff"
         id="path3094" />
      <path
         d="m 187.60975,141.691 c -1.40801,1e-5 -2.72001,0.76801 -3.936,2.304 l 0,7.2 c 0,0.304 -0.112,0.56 -0.336,0.768 -0.208,0.208 -0.464,0.312 -0.768,0.312 -0.304,0 -0.56,-0.104 -0.768,-0.312 -0.208,-0.208 -0.312,-0.464 -0.312,-0.768 l 0,-10.296 c 0,-0.31998 0.104,-0.58398 0.312,-0.792 0.208,-0.20798 0.464,-0.31198 0.768,-0.312 0.304,2e-5 0.56,0.10402 0.768,0.312 0.224,0.20802 0.336,0.47202 0.336,0.792 l 0,0.984 c 0.64,-0.67198 1.19199,-1.14398 1.656,-1.416 0.91199,-0.52798 1.77599,-0.79198 2.592,-0.792 0.83199,2e-5 1.51199,0.12802 2.04,0.384 0.52799,0.24002 0.97599,0.57602 1.344,1.008 0.75199,0.88001 1.12799,1.98401 1.128,3.312 l 0,6.816 c -1e-5,0.304 -0.11201,0.56 -0.336,0.768 -0.20801,0.208 -0.46401,0.312 -0.768,0.312 -0.30401,0 -0.56001,-0.104 -0.768,-0.312 -0.20801,-0.208 -0.31201,-0.464 -0.312,-0.768 l 0,-6.576 c -1e-5,-0.91199 -0.20801,-1.62399 -0.624,-2.136 -0.40001,-0.52799 -1.07201,-0.79199 -2.016,-0.792"
         style="font-size:24px;font-family:Varela Round;-inkscape-font-specification:Varela Round;fill:#ffffff"
         id="path3096" />
      <path
         d="m 201.51475,139.675 c 1.85599,2e-5 3.34399,0.58402 4.464,1.752 1.11999,1.18401 1.67999,2.72001 1.68,4.608 -1e-5,1.88801 -0.56001,3.42401 -1.68,4.608 -1.12001,1.168 -2.60801,1.752 -4.464,1.752 -1.87201,0 -3.36,-0.584 -4.464,-1.752 -1.12,-1.16799 -1.68,-2.70399 -1.68,-4.608 0,-1.90399 0.56,-3.43999 1.68,-4.608 1.104,-1.16798 2.59199,-1.75198 4.464,-1.752 m -2.688,9.744 c 0.384,0.33601 0.80799,0.58401 1.272,0.744 0.47999,0.16001 0.94399,0.24001 1.392,0.24 0.46399,1e-5 0.92799,-0.08 1.392,-0.24 0.47999,-0.15999 0.91199,-0.40799 1.296,-0.744 0.86399,-0.78399 1.29599,-1.91999 1.296,-3.408 -1e-5,-1.43999 -0.43201,-2.55999 -1.296,-3.36 -0.72001,-0.65599 -1.60801,-0.98399 -2.664,-0.984 -1.72801,1e-5 -2.928,0.77601 -3.6,2.328 -0.24,0.56001 -0.36,1.24001 -0.36,2.04 0,0.78401 0.12,1.45601 0.36,2.016 0.24,0.56001 0.544,1.01601 0.912,1.368"
         style="font-size:24px;font-family:Varela Round;-inkscape-font-specification:Varela Round;fill:#ffffff"
         id="path3098" />
      <path
         d="m 215.06313,150.475 c 0.43199,1e-5 0.73599,-0.032 0.91199,-0.096 0.192,-0.08 0.392,-0.11999 0.60001,-0.12 0.22399,1e-5 0.42399,0.08 0.59999,0.24 0.176,0.16001 0.264,0.40001 0.264,0.72 0,0.32 -0.16,0.552 -0.48,0.696 -0.688,0.32 -1.28,0.48 -1.776,0.48 -0.48,0 -0.92,-0.024 -1.32,-0.072 -0.4,-0.048 -0.784,-0.184 -1.152,-0.408 -0.88,-0.512 -1.32,-1.40799 -1.32,-2.688 l 0,-7.44 -1.704,0 c -0.304,1e-5 -0.456,-0.15199 -0.456,-0.456 0,-0.14398 0.072,-0.27998 0.216,-0.408 l 3.264,-3.192 c 0.144,-0.14398 0.28,-0.21598 0.408,-0.216 0.128,2e-5 0.232,0.048 0.312,0.144 0.096,0.096 0.144,0.20802 0.14401,0.336 l 0,1.92 2.71199,0 c 0.272,2e-5 0.496,0.088 0.672,0.264 0.176,0.17602 0.264,0.40002 0.264,0.672 0,0.27202 -0.088,0.49601 -0.264,0.672 -0.176,0.17601 -0.4,0.26401 -0.672,0.264 l -2.71199,0 0,7.248 c -1e-5,0.60801 0.18399,1.02401 0.55199,1.248 0.208,0.12801 0.52,0.19201 0.93601,0.192"
         style="font-size:24px;font-family:Varela Round;-inkscape-font-specification:Varela Round;fill:#ffffff"
         id="path3100" />
      <path
         d="m 225.9535,141.691 c -1.40801,1e-5 -2.72001,0.76801 -3.936,2.304 l 0,7.2 c 0,0.304 -0.112,0.56 -0.336,0.768 -0.208,0.208 -0.464,0.312 -0.768,0.312 -0.304,0 -0.56,-0.104 -0.768,-0.312 -0.208,-0.208 -0.312,-0.464 -0.312,-0.768 l 0,-15.576 c 0,-0.31998 0.104,-0.58398 0.312,-0.792 0.208,-0.20798 0.464,-0.31198 0.768,-0.312 0.304,2e-5 0.56,0.10402 0.768,0.312 0.224,0.20802 0.336,0.47202 0.336,0.792 l 0,6.264 c 0.64,-0.67198 1.19199,-1.14398 1.656,-1.416 0.91199,-0.52798 1.77599,-0.79198 2.592,-0.792 0.83199,2e-5 1.51199,0.12802 2.04,0.384 0.52799,0.24002 0.97599,0.57602 1.344,1.008 0.75199,0.88001 1.12799,1.98401 1.128,3.312 l 0,6.816 c -1e-5,0.304 -0.11201,0.56 -0.336,0.768 -0.20801,0.208 -0.46401,0.312 -0.768,0.312 -0.30401,0 -0.56001,-0.104 -0.768,-0.312 -0.20801,-0.208 -0.31201,-0.464 -0.312,-0.768 l 0,-6.576 c -1e-5,-0.91199 -0.20801,-1.62399 -0.624,-2.136 -0.40001,-0.52799 -1.07201,-0.79199 -2.016,-0.792"
         style="font-size:24px;font-family:Varela Round;-inkscape-font-specification:Varela Round;fill:#ffffff"
         id="path3102" />
      <path
         d="m 234.5545,140.899 c 0,-0.31998 0.104,-0.58398 0.312,-0.792 0.208,-0.20798 0.464,-0.31198 0.768,-0.312 0.32,2e-5 0.584,0.10402 0.792,0.312 0.208,0.20802 0.312,0.47202 0.312,0.792 l 0,10.296 c 0,0.304 -0.104,0.56 -0.312,0.768 -0.208,0.208 -0.472,0.312 -0.792,0.312 -0.304,0 -0.56,-0.104 -0.768,-0.312 -0.208,-0.208 -0.312,-0.464 -0.312,-0.768 l 0,-10.296 m 2.4,-4.704 c 0,0.33602 -0.12,0.62402 -0.36,0.864 -0.24,0.24002 -0.528,0.36002 -0.864,0.36 l -0.144,0 c -0.336,2e-5 -0.624,-0.11998 -0.864,-0.36 -0.24,-0.23998 -0.36,-0.52798 -0.36,-0.864 l 0,-0.096 c 0,-0.33598 0.12,-0.62398 0.36,-0.864 0.24,-0.23998 0.528,-0.35998 0.864,-0.36 l 0.144,0 c 0.336,2e-5 0.624,0.12002 0.864,0.36 0.24,0.24002 0.36,0.52802 0.36,0.864 l 0,0.096"
         style="font-size:24px;font-family:Varela Round;-inkscape-font-specification:Varela Round;fill:#ffffff"
         id="path3104" />
      <path
         d="m 246.766,141.691 c -1.40801,1e-5 -2.72001,0.76801 -3.936,2.304 l 0,7.2 c 0,0.304 -0.112,0.56 -0.336,0.768 -0.208,0.208 -0.464,0.312 -0.768,0.312 -0.304,0 -0.56,-0.104 -0.768,-0.312 -0.208,-0.208 -0.312,-0.464 -0.312,-0.768 l 0,-10.296 c 0,-0.31998 0.104,-0.58398 0.312,-0.792 0.208,-0.20798 0.464,-0.31198 0.768,-0.312 0.304,2e-5 0.56,0.10402 0.768,0.312 0.224,0.20802 0.336,0.47202 0.336,0.792 l 0,0.984 c 0.64,-0.67198 1.19199,-1.14398 1.656,-1.416 0.91199,-0.52798 1.77599,-0.79198 2.592,-0.792 0.83199,2e-5 1.51199,0.12802 2.04,0.384 0.52799,0.24002 0.97599,0.57602 1.344,1.008 0.75199,0.88001 1.12799,1.98401 1.128,3.312 l 0,6.816 c -1e-5,0.304 -0.11201,0.56 -0.336,0.768 -0.20801,0.208 -0.46401,0.312 -0.768,0.312 -0.30401,0 -0.56001,-0.104 -0.768,-0.312 -0.20801,-0.208 -0.31201,-0.464 -0.312,-0.768 l 0,-6.576 c -1e-5,-0.91199 -0.20801,-1.62399 -0.624,-2.136 -0.40001,-0.52799 -1.07201,-0.79199 -2.016,-0.792"
         style="font-size:24px;font-family:Varela Round;-inkscape-font-specification:Varela Round;fill:#ffffff"
         id="path3106" />
      <path
         d="m 264.439,141.499 0,-0.6 c -1e-5,-0.30398 0.10399,-0.55998 0.312,-0.768 0.20799,-0.22398 0.46399,-0.33598 0.768,-0.336 0.30399,2e-5 0.55999,0.11202 0.768,0.336 0.22399,0.20802 0.33599,0.46402 0.336,0.768 l 0,10.728 c -10e-6,2.032 -0.48801,3.584 -1.464,4.656 -0.97601,1.088 -2.36801,1.632 -4.176,1.632 -1.92001,0 -3.632,-0.416 -5.136,-1.248 -0.288,-0.176 -0.432,-0.424 -0.432,-0.744 0,-0.304 0.088,-0.56 0.264,-0.768 0.192,-0.208 0.384,-0.312 0.576,-0.312 0.208,0 0.392,0.032 0.552,0.096 1.216,0.608 2.53599,0.912 3.96,0.912 2.44799,0 3.67199,-1.304 3.672,-3.912 l 0,-1.608 c -1.13601,1.216 -2.50401,1.824 -4.104,1.824 -1.52001,0 -2.824,-0.512 -3.912,-1.536 -1.264,-1.16799 -1.896,-2.73599 -1.896,-4.704 0,-1.96799 0.632,-3.53599 1.896,-4.704 1.088,-1.02398 2.40799,-1.53598 3.96,-1.536 1.56799,2e-5 2.91999,0.60802 4.056,1.824 m 0,1.944 c -0.44801,-0.46399 -0.96001,-0.87199 -1.536,-1.224 -0.57601,-0.36799 -1.21601,-0.55199 -1.92,-0.552 -0.70401,1e-5 -1.30401,0.088 -1.8,0.264 -0.49601,0.17601 -0.928,0.43201 -1.296,0.768 -0.784,0.73601 -1.176,1.80801 -1.176,3.216 0,2.06401 0.824,3.39201 2.472,3.984 0.49599,0.17601 1.09599,0.26401 1.8,0.264 1.16799,1e-5 2.31999,-0.59199 3.456,-1.776 l 0,-4.944"
         style="font-size:24px;font-family:Varela Round;-inkscape-font-specification:Varela Round;fill:#ffffff"
         id="path3108" />
      <path
         d="m 282.766,141.691 c -1.40801,1e-5 -2.72001,0.76801 -3.936,2.304 l 0,7.2 c 0,0.304 -0.112,0.56 -0.336,0.768 -0.208,0.208 -0.464,0.312 -0.768,0.312 -0.304,0 -0.56,-0.104 -0.768,-0.312 -0.208,-0.208 -0.312,-0.464 -0.312,-0.768 l 0,-15.576 c 0,-0.31998 0.104,-0.58398 0.312,-0.792 0.208,-0.20798 0.464,-0.31198 0.768,-0.312 0.304,2e-5 0.56,0.10402 0.768,0.312 0.224,0.20802 0.336,0.47202 0.336,0.792 l 0,6.264 c 0.64,-0.67198 1.19199,-1.14398 1.656,-1.416 0.91199,-0.52798 1.77599,-0.79198 2.592,-0.792 0.83199,2e-5 1.51199,0.12802 2.04,0.384 0.52799,0.24002 0.97599,0.57602 1.344,1.008 0.75199,0.88001 1.12799,1.98401 1.128,3.312 l 0,6.816 c -10e-6,0.304 -0.11201,0.56 -0.336,0.768 -0.20801,0.208 -0.46401,0.312 -0.768,0.312 -0.30401,0 -0.56001,-0.104 -0.768,-0.312 -0.20801,-0.208 -0.31201,-0.464 -0.312,-0.768 l 0,-6.576 c -1e-5,-0.91199 -0.20801,-1.62399 -0.624,-2.136 -0.40001,-0.52799 -1.07201,-0.79199 -2.016,-0.792"
         style="font-size:24px;font-family:Varela Round;-inkscape-font-specification:Varela Round;fill:#ffffff"
         id="path3110" />
      <path
         d="m 292.759,146.803 c 0.128,1.08801 0.536,1.95201 1.224,2.592 0.68799,0.64001 1.64799,0.96001 2.88,0.96 1.23199,1e-5 2.26399,-0.20799 3.096,-0.624 0.28799,-0.14399 0.53599,-0.21599 0.744,-0.216 0.20799,1e-5 0.40799,0.088 0.6,0.264 0.19199,0.17601 0.28799,0.37601 0.288,0.6 -1e-5,0.41601 -0.17601,0.72001 -0.528,0.912 -0.33601,0.176 -0.64001,0.328 -0.912,0.456 -0.27201,0.128 -0.56801,0.24 -0.888,0.336 -0.72001,0.208 -1.55201,0.312 -2.496,0.312 -1.96801,0 -3.496,-0.552 -4.584,-1.656 -1.088,-1.10399 -1.632,-2.67199 -1.632,-4.704 0,-1.75999 0.456,-3.22399 1.368,-4.392 1.024,-1.31198 2.47999,-1.96798 4.368,-1.968 1.79199,2e-5 3.20799,0.60802 4.248,1.824 0.97599,1.13601 1.46399,2.54401 1.464,4.224 -1e-5,0.30401 -0.10401,0.56001 -0.312,0.768 -0.19201,0.20801 -0.45601,0.31201 -0.792,0.312 l -8.136,0 m 3.528,-5.28 c -1.42401,1e-5 -2.464,0.63201 -3.12,1.896 -0.24,0.44801 -0.376,0.98401 -0.408,1.608 l 7.08,0 c -0.064,-1.13599 -0.48001,-2.03199 -1.248,-2.688 -0.64001,-0.54399 -1.40801,-0.81599 -2.304,-0.816"
         style="font-size:24px;font-family:Varela Round;-inkscape-font-specification:Varela Round;fill:#ffffff"
         id="path3112" />
      <path
         d="m 307.1425,141.931 c 1.11999,-1.50398 2.37599,-2.25598 3.768,-2.256 l 0.12,0 c 0.30399,2e-5 0.55199,0.10402 0.744,0.312 0.20799,0.20802 0.31199,0.47202 0.312,0.792 -10e-6,0.30402 -0.10401,0.55201 -0.312,0.744 -0.20801,0.17601 -0.47201,0.26401 -0.792,0.264 l -0.12,0 c -0.80001,1e-5 -1.52001,0.20001 -2.16,0.6 -0.62401,0.38401 -1.144,0.88801 -1.56,1.512 l 0,7.296 c 0,0.304 -0.112,0.56 -0.336,0.768 -0.208,0.208 -0.464,0.312 -0.768,0.312 -0.304,0 -0.56,-0.104 -0.768,-0.312 -0.208,-0.208 -0.312,-0.464 -0.312,-0.768 l 0,-10.296 c 0,-0.30398 0.104,-0.55998 0.312,-0.768 0.208,-0.22398 0.464,-0.33598 0.768,-0.336 0.304,2e-5 0.56,0.11202 0.768,0.336 0.224,0.20802 0.336,0.46402 0.336,0.768 l 0,1.032"
         style="font-size:24px;font-family:Varela Round;-inkscape-font-specification:Varela Round;fill:#ffffff"
         id="path3114" />
      <path
         d="m 315.72775,146.803 c 0.128,1.08801 0.536,1.95201 1.224,2.592 0.68799,0.64001 1.64799,0.96001 2.88,0.96 1.23199,1e-5 2.26399,-0.20799 3.096,-0.624 0.28799,-0.14399 0.53599,-0.21599 0.744,-0.216 0.20799,1e-5 0.40799,0.088 0.6,0.264 0.19199,0.17601 0.28799,0.37601 0.288,0.6 -1e-5,0.41601 -0.17601,0.72001 -0.528,0.912 -0.33601,0.176 -0.64001,0.328 -0.912,0.456 -0.27201,0.128 -0.56801,0.24 -0.888,0.336 -0.72001,0.208 -1.55201,0.312 -2.496,0.312 -1.96801,0 -3.496,-0.552 -4.584,-1.656 -1.088,-1.10399 -1.632,-2.67199 -1.632,-4.704 0,-1.75999 0.456,-3.22399 1.368,-4.392 1.024,-1.31198 2.47999,-1.96798 4.368,-1.968 1.79199,2e-5 3.20799,0.60802 4.248,1.824 0.97599,1.13601 1.46399,2.54401 1.464,4.224 -1e-5,0.30401 -0.10401,0.56001 -0.312,0.768 -0.19201,0.20801 -0.45601,0.31201 -0.792,0.312 l -8.136,0 m 3.528,-5.28 c -1.42401,1e-5 -2.464,0.63201 -3.12,1.896 -0.24,0.44801 -0.376,0.98401 -0.408,1.608 l 7.08,0 c -0.064,-1.13599 -0.48001,-2.03199 -1.248,-2.688 -0.64001,-0.54399 -1.40801,-0.81599 -2.304,-0.816"
         style="font-size:24px;font-family:Varela Round;-inkscape-font-specification:Varela Round;fill:#ffffff"
         id="path3116" />
      <path
         d="m 329.27125,149.395 c 0.368,1e-5 0.68,0.13601 0.936,0.408 0.272,0.25601 0.408,0.56801 0.408,0.936 l 0,0.144 c 0,0.36801 -0.136,0.688 -0.408,0.96 -0.256,0.256 -0.568,0.384 -0.936,0.384 l -0.24,0 c -0.368,0 -0.688,-0.128 -0.96,-0.384 -0.256,-0.272 -0.384,-0.59199 -0.384,-0.96 l 0,-0.144 c 0,-0.36799 0.128,-0.67999 0.384,-0.936 0.272,-0.27199 0.592,-0.40799 0.96,-0.408 l 0.24,0"
         style="font-size:24px;font-family:Varela Round;-inkscape-font-specification:Varela Round;fill:#ffffff"
         id="path3118" />
      <path
         d="m 335.50562,149.395 c 0.368,1e-5 0.68,0.13601 0.936,0.408 0.272,0.25601 0.408,0.56801 0.408,0.936 l 0,0.144 c 0,0.36801 -0.136,0.688 -0.408,0.96 -0.256,0.256 -0.568,0.384 -0.936,0.384 l -0.24,0 c -0.368,0 -0.688,-0.128 -0.95999,-0.384 -0.25601,-0.272 -0.38401,-0.59199 -0.38401,-0.96 l 0,-0.144 c 0,-0.36799 0.128,-0.67999 0.38401,-0.936 0.27199,-0.27199 0.59199,-0.40799 0.95999,-0.408 l 0.24,0"
         style="font-size:24px;font-family:Varela Round;-inkscape-font-specification:Varela Round;fill:#ffffff"
         id="path3120" />
      <path
         d="m 341.74,149.395 c 0.368,1e-5 0.68,0.13601 0.936,0.408 0.272,0.25601 0.408,0.56801 0.408,0.936 l 0,0.144 c 0,0.36801 -0.136,0.688 -0.408,0.96 -0.256,0.256 -0.568,0.384 -0.936,0.384 l -0.24,0 c -0.368,0 -0.688,-0.128 -0.96,-0.384 -0.256,-0.272 -0.384,-0.59199 -0.384,-0.96 l 0,-0.144 c 0,-0.36799 0.128,-0.67999 0.384,-0.936 0.272,-0.27199 0.592,-0.40799 0.96,-0.408 l 0.24,0"
         style="font-size:24px;font-family:Varela Round;-inkscape-font-specification:Varela Round;fill:#ffffff"
         id="path3122" />
    </g>
  </g>
</svg>
