<?xml version="1.0" encoding="UTF-8" standalone="no"?>
<svg
   xmlns:dc="http://purl.org/dc/elements/1.1/"
   xmlns:cc="http://creativecommons.org/ns#"
   xmlns:rdf="http://www.w3.org/1999/02/22-rdf-syntax-ns#"
   xmlns:svg="http://www.w3.org/2000/svg"
   xmlns="http://www.w3.org/2000/svg"
   xmlns:sodipodi="http://sodipodi.sourceforge.net/DTD/sodipodi-0.dtd"
   xmlns:inkscape="http://www.inkscape.org/namespaces/inkscape"
   version="1.1"
   id="svg2"
   height="500"
   width="500"
   inkscape:version="0.91 r13725"
   sodipodi:docname="add_files_prompt_mobile.svg">
  <sodipodi:namedview
     pagecolor="#ffffff"
     bordercolor="#666666"
     borderopacity="1"
     objecttolerance="10"
     gridtolerance="10"
     guidetolerance="10"
     inkscape:pageopacity="0"
     inkscape:pageshadow="2"
     inkscape:window-width="1280"
     inkscape:window-height="962"
     id="namedview37"
     showgrid="false"
     inkscape:zoom="1.3350176"
     inkscape:cx="229.5604"
     inkscape:cy="251.89971"
     inkscape:window-x="-8"
     inkscape:window-y="-8"
     inkscape:window-maximized="1"
     inkscape:current-layer="svg2" />
  <defs
     id="defs4" />
  <metadata
     id="metadata7">
    <rdf:RDF>
      <cc:Work
         rdf:about="">
        <dc:format>image/svg+xml</dc:format>
        <dc:type
           rdf:resource="http://purl.org/dc/dcmitype/StillImage" />
        <dc:title />
      </cc:Work>
    </rdf:RDF>
  </metadata>
  <path
     inkscape:connector-curvature="0"
     style="fill:#000000;fill-opacity:0.2"
     id="path2985"
     d="M 500.00001,250 A 250.00001,250 0 0 1 250,499.99999 250.00001,250 0 0 1 1.108285e-5,250 250.00001,250 0 0 1 250,2.801958e-6 250.00001,250 0 0 1 500.00001,250 Z" />
  <flowRoot
     xml:space="preserve"
     id="flowRoot3763"
     style="font-style:normal;font-variant:normal;font-weight:normal;font-stretch:normal;font-size:40px;line-height:125%;font-family:'Varela Round';-inkscape-font-specification:'Varela Round';letter-spacing:0px;word-spacing:0px;fill:#000000;fill-opacity:1;stroke:none;stroke-width:1px;stroke-linecap:butt;stroke-linejoin:miter;stroke-opacity:1"
     transform="translate(-122.04724,-276.1811)"><flowRegion
       id="flowRegion3765"><rect
         id="rect3767"
         width="335.37064"
         height="50.507626"
         x="78.791901"
         y="140.3857"
         style="font-style:normal;font-variant:normal;font-weight:normal;font-stretch:normal;font-family:'Varela Round';-inkscape-font-specification:'Varela Round'" /></flowRegion><flowPara
       id="flowPara3769" /></flowRoot>  <g
     transform="translate(32.83687,73.74043)"
     style="font-style:normal;font-variant:normal;font-weight:normal;font-stretch:normal;font-size:40px;line-height:125%;font-family:'Varela Round';-inkscape-font-specification:'Varela Round';letter-spacing:0px;word-spacing:0px;fill:#ffffff;fill-opacity:1;stroke:none"
     id="flowRoot3771">
    <path
       inkscape:connector-curvature="0"
       d="m 104.20225,135.403 c 0.28799,2e-5 0.52799,0.10402 0.72,0.312 0.20799,0.19202 0.31199,0.43202 0.312,0.72 -1e-5,0.28802 -0.10401,0.52802 -0.312,0.72 -0.19201,0.19202 -0.43201,0.28802 -0.72,0.288 l -4.872,0 0,13.752 c -8e-6,0.304 -0.112008,0.56 -0.336,0.768 -0.208008,0.208 -0.464008,0.312 -0.768,0.312 -0.304007,0 -0.560007,-0.104 -0.768,-0.312 -0.208006,-0.208 -0.312006,-0.464 -0.312,-0.768 l 0,-13.752 -4.896,0 c -0.288001,2e-5 -0.528001,-0.096 -0.72,-0.288 -0.192,-0.19198 -0.288,-0.43198 -0.288,-0.72 0,-0.28798 0.096,-0.52798 0.288,-0.72 0.191999,-0.20798 0.431999,-0.31198 0.72,-0.312 l 11.952,0"
       style="font-size:24px;font-family:'Varela Round';-inkscape-font-specification:'Varela Round';fill:#ffffff"
       id="path3082" />
    <path
       inkscape:connector-curvature="0"
       d="m 113.47694,141.691 c -1.40801,1e-5 -2.72001,0.76801 -3.936,2.304 l 0,7.2 c -1e-5,0.304 -0.11201,0.56 -0.336,0.768 -0.20801,0.208 -0.46401,0.312 -0.768,0.312 -0.30401,0 -0.56,-0.104 -0.768,-0.312 -0.208,-0.208 -0.312,-0.464 -0.312,-0.768 l 0,-15.576 c 0,-0.31998 0.104,-0.58398 0.312,-0.792 0.208,-0.20798 0.46399,-0.31198 0.768,-0.312 0.30399,2e-5 0.55999,0.10402 0.768,0.312 0.22399,0.20802 0.33599,0.47202 0.336,0.792 l 0,6.264 c 0.63999,-0.67198 1.19199,-1.14398 1.656,-1.416 0.91199,-0.52798 1.77599,-0.79198 2.592,-0.792 0.83199,2e-5 1.51199,0.12802 2.04,0.384 0.52799,0.24002 0.97599,0.57602 1.344,1.008 0.75199,0.88001 1.12798,1.98401 1.128,3.312 l 0,6.816 c -2e-5,0.304 -0.11202,0.56 -0.336,0.768 -0.20801,0.208 -0.46401,0.312 -0.768,0.312 -0.30401,0 -0.56001,-0.104 -0.768,-0.312 -0.20801,-0.208 -0.31201,-0.464 -0.312,-0.768 l 0,-6.576 c -1e-5,-0.91199 -0.20801,-1.62399 -0.624,-2.136 -0.40001,-0.52799 -1.07201,-0.79199 -2.016,-0.792"
       style="font-size:24px;font-family:'Varela Round';-inkscape-font-specification:'Varela Round';fill:#ffffff"
       id="path3084" />
    <path
       inkscape:connector-curvature="0"
       d="m 123.49338,146.803 c 0.12799,1.08801 0.53599,1.95201 1.224,2.592 0.68799,0.64001 1.64799,0.96001 2.88,0.96 1.23199,1e-5 2.26399,-0.20799 3.09599,-0.624 0.28799,-0.14399 0.53599,-0.21599 0.744,-0.216 0.20799,1e-5 0.40799,0.088 0.6,0.264 0.19199,0.17601 0.28799,0.37601 0.288,0.6 -1e-5,0.41601 -0.17601,0.72001 -0.528,0.912 -0.33601,0.176 -0.64001,0.328 -0.912,0.456 -0.27201,0.128 -0.56801,0.24 -0.888,0.336 -0.72,0.208 -1.552,0.312 -2.496,0.312 -1.968,0 -3.496,-0.552 -4.58399,-1.656 -1.08801,-1.10399 -1.63201,-2.67199 -1.632,-4.704 -1e-5,-1.75999 0.45599,-3.22399 1.36799,-4.392 1.024,-1.31198 2.48,-1.96798 4.36801,-1.968 1.79199,2e-5 3.20798,0.60802 4.24799,1.824 0.97599,1.13601 1.46399,2.54401 1.464,4.224 -1e-5,0.30401 -0.10401,0.56001 -0.312,0.768 -0.19201,0.20801 -0.45601,0.31201 -0.792,0.312 l -8.13599,0 m 3.528,-5.28 c -1.42401,1e-5 -2.46401,0.63201 -3.12,1.896 -0.24001,0.44801 -0.37601,0.98401 -0.408,1.608 l 7.07999,0 c -0.064,-1.13599 -0.48,-2.03199 -1.248,-2.688 -0.64,-0.54399 -1.408,-0.81599 -2.30399,-0.816"
       style="font-size:24px;font-family:'Varela Round';-inkscape-font-specification:'Varela Round';fill:#ffffff"
       id="path3086" />
    <path
       inkscape:connector-curvature="0"
       d="m 137.87687,141.931 c 1.12,-1.50398 2.376,-2.25598 3.76801,-2.256 l 0.11999,0 c 0.304,2e-5 0.552,0.10402 0.744,0.312 0.208,0.20802 0.312,0.47202 0.312,0.792 0,0.30402 -0.104,0.55201 -0.312,0.744 -0.208,0.17601 -0.472,0.26401 -0.792,0.264 l -0.12,0 c -0.8,1e-5 -1.52,0.20001 -2.16,0.6 -0.624,0.38401 -1.144,0.88801 -1.56,1.512 l 0,7.296 c 0,0.304 -0.112,0.56 -0.336,0.768 -0.208,0.208 -0.464,0.312 -0.768,0.312 -0.304,0 -0.56,-0.104 -0.768,-0.312 -0.208,-0.208 -0.312,-0.464 -0.312,-0.768 l 0,-10.296 c 0,-0.30398 0.104,-0.55998 0.312,-0.768 0.208,-0.22398 0.464,-0.33598 0.768,-0.336 0.304,2e-5 0.56,0.11202 0.768,0.336 0.224,0.20802 0.336,0.46402 0.336,0.768 l 0,1.032"
       style="font-size:24px;font-family:'Varela Round';-inkscape-font-specification:'Varela Round';fill:#ffffff"
       id="path3088" />
    <path
       inkscape:connector-curvature="0"
       d="m 146.46213,146.803 c 0.12799,1.08801 0.53599,1.95201 1.22399,2.592 0.688,0.64001 1.648,0.96001 2.88,0.96 1.232,1e-5 2.264,-0.20799 3.096,-0.624 0.28799,-0.14399 0.53599,-0.21599 0.744,-0.216 0.20799,1e-5 0.40799,0.088 0.6,0.264 0.19199,0.17601 0.28799,0.37601 0.288,0.6 -1e-5,0.41601 -0.17601,0.72001 -0.528,0.912 -0.33601,0.176 -0.64001,0.328 -0.912,0.456 -0.27201,0.128 -0.56801,0.24 -0.888,0.336 -0.72,0.208 -1.552,0.312 -2.496,0.312 -1.968,0 -3.496,-0.552 -4.584,-1.656 -1.088,-1.10399 -1.632,-2.67199 -1.632,-4.704 0,-1.75999 0.456,-3.22399 1.368,-4.392 1.024,-1.31198 2.48,-1.96798 4.368,-1.968 1.792,2e-5 3.20799,0.60802 4.248,1.824 0.97599,1.13601 1.46399,2.54401 1.464,4.224 -1e-5,0.30401 -0.10401,0.56001 -0.312,0.768 -0.19201,0.20801 -0.45601,0.31201 -0.792,0.312 l -8.13599,0 m 3.52799,-5.28 c -1.424,1e-5 -2.464,0.63201 -3.12,1.896 -0.24,0.44801 -0.376,0.98401 -0.40799,1.608 l 7.07999,0 c -0.064,-1.13599 -0.48,-2.03199 -1.248,-2.688 -0.64,-0.54399 -1.408,-0.81599 -2.304,-0.816"
       style="font-size:24px;font-family:'Varela Round';-inkscape-font-specification:'Varela Round';fill:#ffffff"
       id="path3090" />
    <path
       inkscape:connector-curvature="0"
       d="m 159.72437,134.323 c 0.368,2e-5 0.68,0.13602 0.936,0.408 0.272,0.25602 0.408,0.56802 0.408,0.936 l 0,1.416 c 0,0.84802 -0.216,1.60002 -0.648,2.256 -0.304,0.48002 -0.744,0.89602 -1.31999,1.248 -0.08,0.08 -0.22401,0.12002 -0.43201,0.12 -0.192,2e-5 -0.352,-0.072 -0.48,-0.216 -0.128,-0.14398 -0.192,-0.32798 -0.192,-0.552 0,-0.22398 0.12,-0.40798 0.36001,-0.552 0.35199,-0.20798 0.63999,-0.46398 0.86399,-0.768 0.24,-0.31998 0.36,-0.80798 0.36,-1.464 l -0.096,0 c -0.368,2e-5 -0.688,-0.12798 -0.96,-0.384 -0.256,-0.27198 -0.384,-0.59198 -0.384,-0.96 l 0,-0.144 c 0,-0.36798 0.128,-0.67998 0.384,-0.936 0.272,-0.27198 0.592,-0.40798 0.96,-0.408 l 0.24,0"
       style="font-size:24px;font-family:'Varela Round';-inkscape-font-specification:'Varela Round';fill:#ffffff"
       id="path3092" />
    <path
       inkscape:connector-curvature="0"
       d="m 167.61212,150.379 c 1.776,1e-5 2.664,-0.56799 2.664,-1.704 0,-0.35199 -0.176,-0.61599 -0.528,-0.792 -0.352,-0.19199 -0.8,-0.35999 -1.344,-0.504 -0.528,-0.14399 -1.104,-0.28799 -1.72799,-0.432 -0.62401,-0.15999 -1.20801,-0.37599 -1.75201,-0.648 -0.528,-0.27199 -0.968,-0.62399 -1.32,-1.056 -0.352,-0.44799 -0.528,-0.99199 -0.528,-1.632 0,-0.63999 0.096,-1.19199 0.288,-1.656 0.192,-0.46399 0.48,-0.86398 0.864,-1.2 0.848,-0.71998 2.024,-1.07998 3.528,-1.08 1.2,2e-5 2.36,0.20002 3.48001,0.6 0.22399,0.08 0.39199,0.20802 0.50399,0.384 0.12799,0.17602 0.19199,0.37602 0.192,0.6 -1e-5,0.20801 -0.096,0.40801 -0.288,0.6 -0.176,0.19201 -0.352,0.28801 -0.528,0.288 -0.176,1e-5 -0.392,-0.04 -0.648,-0.12 -0.768,-0.23999 -1.608,-0.35999 -2.52,-0.36 -0.912,1e-5 -1.608,0.16001 -2.088,0.48 -0.464,0.32001 -0.696,0.70401 -0.69599,1.152 -1e-5,0.44801 0.17599,0.78401 0.52799,1.008 0.368,0.20801 0.816,0.38401 1.344,0.528 0.528,0.14401 1.104,0.28801 1.728,0.432 0.64,0.14401 1.224,0.34401 1.752,0.6 1.248,0.64001 1.87199,1.63201 1.872,2.976 -10e-6,1.02401 -0.38401,1.85601 -1.15199,2.496 -0.83201,0.704 -1.99201,1.056 -3.48001,1.056 -1.616,0 -3.072,-0.36 -4.368,-1.08 -0.272,-0.19199 -0.408,-0.43199 -0.408,-0.72 0,-0.28799 0.088,-0.52799 0.264,-0.72 0.176,-0.20799 0.368,-0.31199 0.576,-0.312 0.208,1e-5 0.456,0.064 0.744,0.192 0.928,0.41601 1.944,0.62401 3.048,0.624"
       style="font-size:24px;font-family:'Varela Round';-inkscape-font-specification:'Varela Round';fill:#ffffff"
       id="path3094" />
    <path
       inkscape:connector-curvature="0"
       d="m 187.60975,141.691 c -1.40801,1e-5 -2.72001,0.76801 -3.936,2.304 l 0,7.2 c 0,0.304 -0.112,0.56 -0.336,0.768 -0.208,0.208 -0.464,0.312 -0.768,0.312 -0.304,0 -0.56,-0.104 -0.768,-0.312 -0.208,-0.208 -0.312,-0.464 -0.312,-0.768 l 0,-10.296 c 0,-0.31998 0.104,-0.58398 0.312,-0.792 0.208,-0.20798 0.464,-0.31198 0.768,-0.312 0.304,2e-5 0.56,0.10402 0.768,0.312 0.224,0.20802 0.336,0.47202 0.336,0.792 l 0,0.984 c 0.64,-0.67198 1.19199,-1.14398 1.656,-1.416 0.91199,-0.52798 1.77599,-0.79198 2.592,-0.792 0.83199,2e-5 1.51199,0.12802 2.04,0.384 0.52799,0.24002 0.97599,0.57602 1.344,1.008 0.75199,0.88001 1.12799,1.98401 1.128,3.312 l 0,6.816 c -1e-5,0.304 -0.11201,0.56 -0.336,0.768 -0.20801,0.208 -0.46401,0.312 -0.768,0.312 -0.30401,0 -0.56001,-0.104 -0.768,-0.312 -0.20801,-0.208 -0.31201,-0.464 -0.312,-0.768 l 0,-6.576 c -1e-5,-0.91199 -0.20801,-1.62399 -0.624,-2.136 -0.40001,-0.52799 -1.07201,-0.79199 -2.016,-0.792"
       style="font-size:24px;font-family:'Varela Round';-inkscape-font-specification:'Varela Round';fill:#ffffff"
       id="path3096" />
    <path
       inkscape:connector-curvature="0"
       d="m 201.51475,139.675 c 1.85599,2e-5 3.34399,0.58402 4.464,1.752 1.11999,1.18401 1.67999,2.72001 1.68,4.608 -1e-5,1.88801 -0.56001,3.42401 -1.68,4.608 -1.12001,1.168 -2.60801,1.752 -4.464,1.752 -1.87201,0 -3.36,-0.584 -4.464,-1.752 -1.12,-1.16799 -1.68,-2.70399 -1.68,-4.608 0,-1.90399 0.56,-3.43999 1.68,-4.608 1.104,-1.16798 2.59199,-1.75198 4.464,-1.752 m -2.688,9.744 c 0.384,0.33601 0.80799,0.58401 1.272,0.744 0.47999,0.16001 0.94399,0.24001 1.392,0.24 0.46399,1e-5 0.92799,-0.08 1.392,-0.24 0.47999,-0.15999 0.91199,-0.40799 1.296,-0.744 0.86399,-0.78399 1.29599,-1.91999 1.296,-3.408 -1e-5,-1.43999 -0.43201,-2.55999 -1.296,-3.36 -0.72001,-0.65599 -1.60801,-0.98399 -2.664,-0.984 -1.72801,1e-5 -2.928,0.77601 -3.6,2.328 -0.24,0.56001 -0.36,1.24001 -0.36,2.04 0,0.78401 0.12,1.45601 0.36,2.016 0.24,0.56001 0.544,1.01601 0.912,1.368"
       style="font-size:24px;font-family:'Varela Round';-inkscape-font-specification:'Varela Round';fill:#ffffff"
       id="path3098" />
    <path
       inkscape:connector-curvature="0"
       d="m 215.06313,150.475 c 0.43199,1e-5 0.73599,-0.032 0.91199,-0.096 0.192,-0.08 0.392,-0.11999 0.60001,-0.12 0.22399,1e-5 0.42399,0.08 0.59999,0.24 0.176,0.16001 0.264,0.40001 0.264,0.72 0,0.32 -0.16,0.552 -0.48,0.696 -0.688,0.32 -1.28,0.48 -1.776,0.48 -0.48,0 -0.92,-0.024 -1.32,-0.072 -0.4,-0.048 -0.784,-0.184 -1.152,-0.408 -0.88,-0.512 -1.32,-1.40799 -1.32,-2.688 l 0,-7.44 -1.704,0 c -0.304,1e-5 -0.456,-0.15199 -0.456,-0.456 0,-0.14398 0.072,-0.27998 0.216,-0.408 l 3.264,-3.192 c 0.144,-0.14398 0.28,-0.21598 0.408,-0.216 0.128,2e-5 0.232,0.048 0.312,0.144 0.096,0.096 0.144,0.20802 0.14401,0.336 l 0,1.92 2.71199,0 c 0.272,2e-5 0.496,0.088 0.672,0.264 0.176,0.17602 0.264,0.40002 0.264,0.672 0,0.27202 -0.088,0.49601 -0.264,0.672 -0.176,0.17601 -0.4,0.26401 -0.672,0.264 l -2.71199,0 0,7.248 c -1e-5,0.60801 0.18399,1.02401 0.55199,1.248 0.208,0.12801 0.52,0.19201 0.93601,0.192"
       style="font-size:24px;font-family:'Varela Round';-inkscape-font-specification:'Varela Round';fill:#ffffff"
       id="path3100" />
    <path
       inkscape:connector-curvature="0"
       d="m 225.9535,141.691 c -1.40801,1e-5 -2.72001,0.76801 -3.936,2.304 l 0,7.2 c 0,0.304 -0.112,0.56 -0.336,0.768 -0.208,0.208 -0.464,0.312 -0.768,0.312 -0.304,0 -0.56,-0.104 -0.768,-0.312 -0.208,-0.208 -0.312,-0.464 -0.312,-0.768 l 0,-15.576 c 0,-0.31998 0.104,-0.58398 0.312,-0.792 0.208,-0.20798 0.464,-0.31198 0.768,-0.312 0.304,2e-5 0.56,0.10402 0.768,0.312 0.224,0.20802 0.336,0.47202 0.336,0.792 l 0,6.264 c 0.64,-0.67198 1.19199,-1.14398 1.656,-1.416 0.91199,-0.52798 1.77599,-0.79198 2.592,-0.792 0.83199,2e-5 1.51199,0.12802 2.04,0.384 0.52799,0.24002 0.97599,0.57602 1.344,1.008 0.75199,0.88001 1.12799,1.98401 1.128,3.312 l 0,6.816 c -1e-5,0.304 -0.11201,0.56 -0.336,0.768 -0.20801,0.208 -0.46401,0.312 -0.768,0.312 -0.30401,0 -0.56001,-0.104 -0.768,-0.312 -0.20801,-0.208 -0.31201,-0.464 -0.312,-0.768 l 0,-6.576 c -1e-5,-0.91199 -0.20801,-1.62399 -0.624,-2.136 -0.40001,-0.52799 -1.07201,-0.79199 -2.016,-0.792"
       style="font-size:24px;font-family:'Varela Round';-inkscape-font-specification:'Varela Round';fill:#ffffff"
       id="path3102" />
    <path
       inkscape:connector-curvature="0"
       d="m 234.5545,140.899 c 0,-0.31998 0.104,-0.58398 0.312,-0.792 0.208,-0.20798 0.464,-0.31198 0.768,-0.312 0.32,2e-5 0.584,0.10402 0.792,0.312 0.208,0.20802 0.312,0.47202 0.312,0.792 l 0,10.296 c 0,0.304 -0.104,0.56 -0.312,0.768 -0.208,0.208 -0.472,0.312 -0.792,0.312 -0.304,0 -0.56,-0.104 -0.768,-0.312 -0.208,-0.208 -0.312,-0.464 -0.312,-0.768 l 0,-10.296 m 2.4,-4.704 c 0,0.33602 -0.12,0.62402 -0.36,0.864 -0.24,0.24002 -0.528,0.36002 -0.864,0.36 l -0.144,0 c -0.336,2e-5 -0.624,-0.11998 -0.864,-0.36 -0.24,-0.23998 -0.36,-0.52798 -0.36,-0.864 l 0,-0.096 c 0,-0.33598 0.12,-0.62398 0.36,-0.864 0.24,-0.23998 0.528,-0.35998 0.864,-0.36 l 0.144,0 c 0.336,2e-5 0.624,0.12002 0.864,0.36 0.24,0.24002 0.36,0.52802 0.36,0.864 l 0,0.096"
       style="font-size:24px;font-family:'Varela Round';-inkscape-font-specification:'Varela Round';fill:#ffffff"
       id="path3104" />
    <path
       inkscape:connector-curvature="0"
       d="m 246.766,141.691 c -1.40801,1e-5 -2.72001,0.76801 -3.936,2.304 l 0,7.2 c 0,0.304 -0.112,0.56 -0.336,0.768 -0.208,0.208 -0.464,0.312 -0.768,0.312 -0.304,0 -0.56,-0.104 -0.768,-0.312 -0.208,-0.208 -0.312,-0.464 -0.312,-0.768 l 0,-10.296 c 0,-0.31998 0.104,-0.58398 0.312,-0.792 0.208,-0.20798 0.464,-0.31198 0.768,-0.312 0.304,2e-5 0.56,0.10402 0.768,0.312 0.224,0.20802 0.336,0.47202 0.336,0.792 l 0,0.984 c 0.64,-0.67198 1.19199,-1.14398 1.656,-1.416 0.91199,-0.52798 1.77599,-0.79198 2.592,-0.792 0.83199,2e-5 1.51199,0.12802 2.04,0.384 0.52799,0.24002 0.97599,0.57602 1.344,1.008 0.75199,0.88001 1.12799,1.98401 1.128,3.312 l 0,6.816 c -1e-5,0.304 -0.11201,0.56 -0.336,0.768 -0.20801,0.208 -0.46401,0.312 -0.768,0.312 -0.30401,0 -0.56001,-0.104 -0.768,-0.312 -0.20801,-0.208 -0.31201,-0.464 -0.312,-0.768 l 0,-6.576 c -1e-5,-0.91199 -0.20801,-1.62399 -0.624,-2.136 -0.40001,-0.52799 -1.07201,-0.79199 -2.016,-0.792"
       style="font-size:24px;font-family:'Varela Round';-inkscape-font-specification:'Varela Round';fill:#ffffff"
       id="path3106" />
    <path
       inkscape:connector-curvature="0"
       d="m 264.439,141.499 0,-0.6 c -1e-5,-0.30398 0.10399,-0.55998 0.312,-0.768 0.20799,-0.22398 0.46399,-0.33598 0.768,-0.336 0.30399,2e-5 0.55999,0.11202 0.768,0.336 0.22399,0.20802 0.33599,0.46402 0.336,0.768 l 0,10.728 c -10e-6,2.032 -0.48801,3.584 -1.464,4.656 -0.97601,1.088 -2.36801,1.632 -4.176,1.632 -1.92001,0 -3.632,-0.416 -5.136,-1.248 -0.288,-0.176 -0.432,-0.424 -0.432,-0.744 0,-0.304 0.088,-0.56 0.264,-0.768 0.192,-0.208 0.384,-0.312 0.576,-0.312 0.208,0 0.392,0.032 0.552,0.096 1.216,0.608 2.53599,0.912 3.96,0.912 2.44799,0 3.67199,-1.304 3.672,-3.912 l 0,-1.608 c -1.13601,1.216 -2.50401,1.824 -4.104,1.824 -1.52001,0 -2.824,-0.512 -3.912,-1.536 -1.264,-1.16799 -1.896,-2.73599 -1.896,-4.704 0,-1.96799 0.632,-3.53599 1.896,-4.704 1.088,-1.02398 2.40799,-1.53598 3.96,-1.536 1.56799,2e-5 2.91999,0.60802 4.056,1.824 m 0,1.944 c -0.44801,-0.46399 -0.96001,-0.87199 -1.536,-1.224 -0.57601,-0.36799 -1.21601,-0.55199 -1.92,-0.552 -0.70401,1e-5 -1.30401,0.088 -1.8,0.264 -0.49601,0.17601 -0.928,0.43201 -1.296,0.768 -0.784,0.73601 -1.176,1.80801 -1.176,3.216 0,2.06401 0.824,3.39201 2.472,3.984 0.49599,0.17601 1.09599,0.26401 1.8,0.264 1.16799,1e-5 2.31999,-0.59199 3.456,-1.776 l 0,-4.944"
       style="font-size:24px;font-family:'Varela Round';-inkscape-font-specification:'Varela Round';fill:#ffffff"
       id="path3108" />
    <path
       inkscape:connector-curvature="0"
       d="m 282.766,141.691 c -1.40801,1e-5 -2.72001,0.76801 -3.936,2.304 l 0,7.2 c 0,0.304 -0.112,0.56 -0.336,0.768 -0.208,0.208 -0.464,0.312 -0.768,0.312 -0.304,0 -0.56,-0.104 -0.768,-0.312 -0.208,-0.208 -0.312,-0.464 -0.312,-0.768 l 0,-15.576 c 0,-0.31998 0.104,-0.58398 0.312,-0.792 0.208,-0.20798 0.464,-0.31198 0.768,-0.312 0.304,2e-5 0.56,0.10402 0.768,0.312 0.224,0.20802 0.336,0.47202 0.336,0.792 l 0,6.264 c 0.64,-0.67198 1.19199,-1.14398 1.656,-1.416 0.91199,-0.52798 1.77599,-0.79198 2.592,-0.792 0.83199,2e-5 1.51199,0.12802 2.04,0.384 0.52799,0.24002 0.97599,0.57602 1.344,1.008 0.75199,0.88001 1.12799,1.98401 1.128,3.312 l 0,6.816 c -10e-6,0.304 -0.11201,0.56 -0.336,0.768 -0.20801,0.208 -0.46401,0.312 -0.768,0.312 -0.30401,0 -0.56001,-0.104 -0.768,-0.312 -0.20801,-0.208 -0.31201,-0.464 -0.312,-0.768 l 0,-6.576 c -1e-5,-0.91199 -0.20801,-1.62399 -0.624,-2.136 -0.40001,-0.52799 -1.07201,-0.79199 -2.016,-0.792"
       style="font-size:24px;font-family:'Varela Round';-inkscape-font-specification:'Varela Round';fill:#ffffff"
       id="path3110" />
    <path
       inkscape:connector-curvature="0"
       d="m 292.759,146.803 c 0.128,1.08801 0.536,1.95201 1.224,2.592 0.68799,0.64001 1.64799,0.96001 2.88,0.96 1.23199,1e-5 2.26399,-0.20799 3.096,-0.624 0.28799,-0.14399 0.53599,-0.21599 0.744,-0.216 0.20799,1e-5 0.40799,0.088 0.6,0.264 0.19199,0.17601 0.28799,0.37601 0.288,0.6 -1e-5,0.41601 -0.17601,0.72001 -0.528,0.912 -0.33601,0.176 -0.64001,0.328 -0.912,0.456 -0.27201,0.128 -0.56801,0.24 -0.888,0.336 -0.72001,0.208 -1.55201,0.312 -2.496,0.312 -1.96801,0 -3.496,-0.552 -4.584,-1.656 -1.088,-1.10399 -1.632,-2.67199 -1.632,-4.704 0,-1.75999 0.456,-3.22399 1.368,-4.392 1.024,-1.31198 2.47999,-1.96798 4.368,-1.968 1.79199,2e-5 3.20799,0.60802 4.248,1.824 0.97599,1.13601 1.46399,2.54401 1.464,4.224 -1e-5,0.30401 -0.10401,0.56001 -0.312,0.768 -0.19201,0.20801 -0.45601,0.31201 -0.792,0.312 l -8.136,0 m 3.528,-5.28 c -1.42401,1e-5 -2.464,0.63201 -3.12,1.896 -0.24,0.44801 -0.376,0.98401 -0.408,1.608 l 7.08,0 c -0.064,-1.13599 -0.48001,-2.03199 -1.248,-2.688 -0.64001,-0.54399 -1.40801,-0.81599 -2.304,-0.816"
       style="font-size:24px;font-family:'Varela Round';-inkscape-font-specification:'Varela Round';fill:#ffffff"
       id="path3112" />
    <path
       inkscape:connector-curvature="0"
       d="m 307.1425,141.931 c 1.11999,-1.50398 2.37599,-2.25598 3.768,-2.256 l 0.12,0 c 0.30399,2e-5 0.55199,0.10402 0.744,0.312 0.20799,0.20802 0.31199,0.47202 0.312,0.792 -10e-6,0.30402 -0.10401,0.55201 -0.312,0.744 -0.20801,0.17601 -0.47201,0.26401 -0.792,0.264 l -0.12,0 c -0.80001,1e-5 -1.52001,0.20001 -2.16,0.6 -0.62401,0.38401 -1.144,0.88801 -1.56,1.512 l 0,7.296 c 0,0.304 -0.112,0.56 -0.336,0.768 -0.208,0.208 -0.464,0.312 -0.768,0.312 -0.304,0 -0.56,-0.104 -0.768,-0.312 -0.208,-0.208 -0.312,-0.464 -0.312,-0.768 l 0,-10.296 c 0,-0.30398 0.104,-0.55998 0.312,-0.768 0.208,-0.22398 0.464,-0.33598 0.768,-0.336 0.304,2e-5 0.56,0.11202 0.768,0.336 0.224,0.20802 0.336,0.46402 0.336,0.768 l 0,1.032"
       style="font-size:24px;font-family:'Varela Round';-inkscape-font-specification:'Varela Round';fill:#ffffff"
       id="path3114" />
    <path
       inkscape:connector-curvature="0"
       d="m 315.72775,146.803 c 0.128,1.08801 0.536,1.95201 1.224,2.592 0.68799,0.64001 1.64799,0.96001 2.88,0.96 1.23199,1e-5 2.26399,-0.20799 3.096,-0.624 0.28799,-0.14399 0.53599,-0.21599 0.744,-0.216 0.20799,1e-5 0.40799,0.088 0.6,0.264 0.19199,0.17601 0.28799,0.37601 0.288,0.6 -1e-5,0.41601 -0.17601,0.72001 -0.528,0.912 -0.33601,0.176 -0.64001,0.328 -0.912,0.456 -0.27201,0.128 -0.56801,0.24 -0.888,0.336 -0.72001,0.208 -1.55201,0.312 -2.496,0.312 -1.96801,0 -3.496,-0.552 -4.584,-1.656 -1.088,-1.10399 -1.632,-2.67199 -1.632,-4.704 0,-1.75999 0.456,-3.22399 1.368,-4.392 1.024,-1.31198 2.47999,-1.96798 4.368,-1.968 1.79199,2e-5 3.20799,0.60802 4.248,1.824 0.97599,1.13601 1.46399,2.54401 1.464,4.224 -1e-5,0.30401 -0.10401,0.56001 -0.312,0.768 -0.19201,0.20801 -0.45601,0.31201 -0.792,0.312 l -8.136,0 m 3.528,-5.28 c -1.42401,1e-5 -2.464,0.63201 -3.12,1.896 -0.24,0.44801 -0.376,0.98401 -0.408,1.608 l 7.08,0 c -0.064,-1.13599 -0.48001,-2.03199 -1.248,-2.688 -0.64001,-0.54399 -1.40801,-0.81599 -2.304,-0.816"
       style="font-size:24px;font-family:'Varela Round';-inkscape-font-specification:'Varela Round';fill:#ffffff"
       id="path3116" />
    <path
       inkscape:connector-curvature="0"
       d="m 329.27125,149.395 c 0.368,1e-5 0.68,0.13601 0.936,0.408 0.272,0.25601 0.408,0.56801 0.408,0.936 l 0,0.144 c 0,0.36801 -0.136,0.688 -0.408,0.96 -0.256,0.256 -0.568,0.384 -0.936,0.384 l -0.24,0 c -0.368,0 -0.688,-0.128 -0.96,-0.384 -0.256,-0.272 -0.384,-0.59199 -0.384,-0.96 l 0,-0.144 c 0,-0.36799 0.128,-0.67999 0.384,-0.936 0.272,-0.27199 0.592,-0.40799 0.96,-0.408 l 0.24,0"
       style="font-size:24px;font-family:'Varela Round';-inkscape-font-specification:'Varela Round';fill:#ffffff"
       id="path3118" />
    <path
       inkscape:connector-curvature="0"
       d="m 335.50562,149.395 c 0.368,1e-5 0.68,0.13601 0.936,0.408 0.272,0.25601 0.408,0.56801 0.408,0.936 l 0,0.144 c 0,0.36801 -0.136,0.688 -0.408,0.96 -0.256,0.256 -0.568,0.384 -0.936,0.384 l -0.24,0 c -0.368,0 -0.688,-0.128 -0.95999,-0.384 -0.25601,-0.272 -0.38401,-0.59199 -0.38401,-0.96 l 0,-0.144 c 0,-0.36799 0.128,-0.67999 0.38401,-0.936 0.27199,-0.27199 0.59199,-0.40799 0.95999,-0.408 l 0.24,0"
       style="font-size:24px;font-family:'Varela Round';-inkscape-font-specification:'Varela Round';fill:#ffffff"
       id="path3120" />
    <path
       inkscape:connector-curvature="0"
       d="m 341.74,149.395 c 0.368,1e-5 0.68,0.13601 0.936,0.408 0.272,0.25601 0.408,0.56801 0.408,0.936 l 0,0.144 c 0,0.36801 -0.136,0.688 -0.408,0.96 -0.256,0.256 -0.568,0.384 -0.936,0.384 l -0.24,0 c -0.368,0 -0.688,-0.128 -0.96,-0.384 -0.256,-0.272 -0.384,-0.59199 -0.384,-0.96 l 0,-0.144 c 0,-0.36799 0.128,-0.67999 0.384,-0.936 0.272,-0.27199 0.592,-0.40799 0.96,-0.408 l 0.24,0"
       style="font-size:24px;font-family:'Varela Round';-inkscape-font-specification:'Varela Round';fill:#ffffff"
       id="path3122" />
  </g>
  <g
     transform="translate(-3.19328,22.20466)"
     style="font-style:normal;font-weight:normal;font-size:40px;line-height:125%;font-family:Sans;letter-spacing:0px;word-spacing:0px;fill:#ffffff;fill-opacity:1;stroke:none;stroke-width:1px;stroke-linecap:butt;stroke-linejoin:miter;stroke-opacity:1"
     id="flowRoot4202">
    <path
       d="m 77.718594,232.41191 q 0.72,0 1.2,0.52 0.52,0.48 0.52,1.2 0,0.72 -0.52,1.2 -0.48,0.48 -1.2,0.48 l -8.12,0 0,22.92 q 0,0.76 -0.56,1.28 -0.52,0.52 -1.28,0.52 -0.76,0 -1.28,-0.52 -0.52,-0.52 -0.52,-1.28 l 0,-22.92 -8.16,0 q -0.72,0 -1.2,-0.48 -0.48,-0.48 -0.48,-1.2 0,-0.72 0.48,-1.2 0.48,-0.52 1.2,-0.52 l 19.92,0 z"
       style="font-style:normal;font-variant:normal;font-weight:normal;font-stretch:normal;font-size:40px;font-family:'Varela Round';-inkscape-font-specification:'Varela Round';fill:#ffffff;fill-opacity:1"
       id="path4228" />
    <path
       d="m 80.806719,240.97191 q 3.36,-1.44 6.96,-1.44 4.08,0 6.32,2.48 2,2.16 2,5.4 l 0,11.32 q 0,0.76 -0.56,1.28 -0.52,0.52 -1.28,0.52 -0.76,0 -1.28,-0.52 -0.52,-0.52 -0.52,-1.28 l 0,-1.04 q -1.08,1.12 -2.92,2.08 -1.8,0.96 -4.6,0.96 -2.76,0 -4.6,-1.6 -1.92,-1.68 -1.92,-4.4 0,-2.96 2.24,-4.64 2.44,-1.84 6.96,-1.84 l 4.84,0 0,-0.32 q 0,-2.68 -1.32,-3.8 -1.32,-1.16 -4.04,-1.16 -2.32,0 -5.32,0.96 -0.32,0.08 -0.72,0.08 -0.4,0 -0.84,-0.4 -0.44,-0.44 -0.44,-1.32 0,-0.88 1.04,-1.32 z m 1.24,13.36 q 0,3.2 4.24,3.2 1.88,0 3.48,-0.92 1.64,-0.92 2.68,-2.08 l 0,-3.36 -4.36,0 q -2.84,0 -4.44,0.72 -1.6,0.72 -1.6,2.44 z"
       style="font-style:normal;font-variant:normal;font-weight:normal;font-stretch:normal;font-size:40px;font-family:'Varela Round';-inkscape-font-specification:'Varela Round';fill:#ffffff;fill-opacity:1"
       id="path4230" />
    <path
       d="m 105.87422,242.57191 q 2.96,-3.04 6.84,-3.04 3.88,0 6.64,2.76 3.04,3.04 3.04,7.84 0,4.88 -3.04,7.88 -2.8,2.72 -6.68,2.72 -3.84,0 -6.8,-3.04 l 0,10.2 q 0,0.8 -0.52,1.32 -0.52,0.52 -1.32,0.52 -0.76,0 -1.28,-0.52 -0.52,-0.52 -0.52,-1.32 l 0,-26.36 q 0,-0.76 0.52,-1.28 0.52,-0.52 1.28,-0.52 0.8,0 1.32,0.52 0.52,0.52 0.52,1.28 l 0,1.04 z m 0,11.76 q 2.72,3 6.32,3 4.56,0 6.08,-4.08 0.48,-1.36 0.48,-3.12 0,-3.44 -1.84,-5.4 -1.76,-1.8 -4.72,-1.8 -3.6,0 -6.32,3 l 0,8.4 z"
       style="font-style:normal;font-variant:normal;font-weight:normal;font-stretch:normal;font-size:40px;font-family:'Varela Round';-inkscape-font-specification:'Varela Round';fill:#ffffff;fill-opacity:1"
       id="path4232" />
    <path
       d="m 145.29922,257.53191 q 1.08,0 1.52,-0.16 0.48,-0.2 1,-0.2 0.56,0 1,0.4 0.44,0.4 0.44,1.2 0,0.8 -0.8,1.16 -1.72,0.8 -2.96,0.8 -1.2,0 -2.2,-0.12 -1,-0.12 -1.92,-0.68 -2.2,-1.28 -2.2,-4.48 l 0,-12.4 -2.84,0 q -0.76,0 -0.76,-0.76 0,-0.36 0.36,-0.68 l 5.44,-5.32 q 0.36,-0.36 0.68,-0.36 0.32,0 0.52,0.24 0.24,0.24 0.24,0.56 l 0,3.2 4.52,0 q 0.68,0 1.12,0.44 0.44,0.44 0.44,1.12 0,0.68 -0.44,1.12 -0.44,0.44 -1.12,0.44 l -4.52,0 0,12.08 q 0,1.52 0.92,2.08 0.52,0.32 1.56,0.32 z"
       style="font-style:normal;font-variant:normal;font-weight:normal;font-stretch:normal;font-size:40px;font-family:'Varela Round';-inkscape-font-specification:'Varela Round';fill:#ffffff;fill-opacity:1"
       id="path4234" />
    <path
       d="m 163.44984,242.89191 q -3.52,0 -6.56,3.84 l 0,12 q 0,0.76 -0.56,1.28 -0.52,0.52 -1.28,0.52 -0.76,0 -1.28,-0.52 -0.52,-0.52 -0.52,-1.28 l 0,-25.96 q 0,-0.8 0.52,-1.32 0.52,-0.52 1.28,-0.52 0.76,0 1.28,0.52 0.56,0.52 0.56,1.32 l 0,10.44 q 1.6,-1.68 2.76,-2.36 2.28,-1.32 4.32,-1.32 2.08,0 3.4,0.64 1.32,0.6 2.24,1.68 1.88,2.2 1.88,5.52 l 0,11.36 q 0,0.76 -0.56,1.28 -0.52,0.52 -1.28,0.52 -0.76,0 -1.28,-0.52 -0.52,-0.52 -0.52,-1.28 l 0,-10.96 q 0,-2.28 -1.04,-3.56 -1,-1.32 -3.36,-1.32 z"
       style="font-style:normal;font-variant:normal;font-weight:normal;font-stretch:normal;font-size:40px;font-family:'Varela Round';-inkscape-font-specification:'Varela Round';fill:#ffffff;fill-opacity:1"
       id="path4236" />
    <path
       d="m 180.10484,251.41191 q 0.32,2.72 2.04,4.32 1.72,1.6 4.8,1.6 3.08,0 5.16,-1.04 0.72,-0.36 1.24,-0.36 0.52,0 1,0.44 0.48,0.44 0.48,1 0,1.04 -0.88,1.52 -0.84,0.44 -1.52,0.76 -0.68,0.32 -1.48,0.56 -1.8,0.52 -4.16,0.52 -4.92,0 -7.64,-2.76 -2.72,-2.76 -2.72,-7.84 0,-4.4 2.28,-7.32 2.56,-3.28 7.28,-3.28 4.48,0 7.08,3.04 2.44,2.84 2.44,7.04 0,0.76 -0.52,1.28 -0.48,0.52 -1.32,0.52 l -13.56,0 z m 5.88,-8.8 q -3.56,0 -5.2,3.16 -0.6,1.12 -0.68,2.68 l 11.8,0 q -0.16,-2.84 -2.08,-4.48 -1.6,-1.36 -3.84,-1.36 z"
       style="font-style:normal;font-variant:normal;font-weight:normal;font-stretch:normal;font-size:40px;font-family:'Varela Round';-inkscape-font-specification:'Varela Round';fill:#ffffff;fill-opacity:1"
       id="path4238" />
    <path
       d="m 226.98797,244.97191 q 0.68,0 1.12,0.44 0.44,0.44 0.44,1.12 0,0.68 -0.44,1.12 -0.44,0.4 -1.12,0.4 l -6.52,0 0,6.56 q 0,0.68 -0.44,1.12 -0.44,0.44 -1.12,0.44 -0.68,0 -1.12,-0.44 -0.44,-0.44 -0.44,-1.12 l 0,-6.56 -6.56,0 q -0.68,0 -1.12,-0.4 -0.4,-0.44 -0.4,-1.12 0,-0.68 0.4,-1.12 0.44,-0.44 1.12,-0.44 l 6.56,0 0,-6.56 q 0,-0.68 0.44,-1.12 0.44,-0.44 1.12,-0.44 0.68,0 1.12,0.44 0.44,0.44 0.44,1.12 l 0,6.56 6.52,0 z"
       style="font-style:normal;font-variant:normal;font-weight:normal;font-stretch:normal;font-size:40px;font-family:'Varela Round';-inkscape-font-specification:'Varela Round';fill:#ffffff;fill-opacity:1"
       id="path4240" />
    <path
       d="m 251.15859,257.53191 q 1.08,0 1.52,-0.16 0.48,-0.2 1,-0.2 0.56,0 1,0.4 0.44,0.4 0.44,1.2 0,0.8 -0.8,1.16 -1.72,0.8 -2.96,0.8 -1.2,0 -2.2,-0.12 -1,-0.12 -1.92,-0.68 -2.2,-1.28 -2.2,-4.48 l 0,-12.4 -2.84,0 q -0.76,0 -0.76,-0.76 0,-0.36 0.36,-0.68 l 5.44,-5.32 q 0.36,-0.36 0.68,-0.36 0.32,0 0.52,0.24 0.24,0.24 0.24,0.56 l 0,3.2 4.52,0 q 0.68,0 1.12,0.44 0.44,0.44 0.44,1.12 0,0.68 -0.44,1.12 -0.44,0.44 -1.12,0.44 l -4.52,0 0,12.08 q 0,1.52 0.92,2.08 0.52,0.32 1.56,0.32 z"
       style="font-style:normal;font-variant:normal;font-weight:normal;font-stretch:normal;font-size:40px;font-family:'Varela Round';-inkscape-font-specification:'Varela Round';fill:#ffffff;fill-opacity:1"
       id="path4242" />
    <path
       d="m 268.10922,239.53191 q 4.64,0 7.44,2.92 2.8,2.96 2.8,7.68 0,4.72 -2.8,7.68 -2.8,2.92 -7.44,2.92 -4.68,0 -7.44,-2.92 -2.8,-2.92 -2.8,-7.68 0,-4.76 2.8,-7.68 2.76,-2.92 7.44,-2.92 z m -4.48,16.24 q 0.96,0.84 2.12,1.24 1.2,0.4 2.32,0.4 1.16,0 2.32,-0.4 1.2,-0.4 2.16,-1.24 2.16,-1.96 2.16,-5.68 0,-3.6 -2.16,-5.6 -1.8,-1.64 -4.44,-1.64 -4.32,0 -6,3.88 -0.6,1.4 -0.6,3.4 0,1.96 0.6,3.36 0.6,1.4 1.52,2.28 z"
       style="font-style:normal;font-variant:normal;font-weight:normal;font-stretch:normal;font-size:40px;font-family:'Varela Round';-inkscape-font-specification:'Varela Round';fill:#ffffff;fill-opacity:1"
       id="path4244" />
    <path
       d="m 294.55672,240.97191 q 3.36,-1.44 6.96,-1.44 4.08,0 6.32,2.48 2,2.16 2,5.4 l 0,11.32 q 0,0.76 -0.56,1.28 -0.52,0.52 -1.28,0.52 -0.76,0 -1.28,-0.52 -0.52,-0.52 -0.52,-1.28 l 0,-1.04 q -1.08,1.12 -2.92,2.08 -1.8,0.96 -4.6,0.96 -2.76,0 -4.6,-1.6 -1.92,-1.68 -1.92,-4.4 0,-2.96 2.24,-4.64 2.44,-1.84 6.96,-1.84 l 4.84,0 0,-0.32 q 0,-2.68 -1.32,-3.8 -1.32,-1.16 -4.04,-1.16 -2.32,0 -5.32,0.96 -0.32,0.08 -0.72,0.08 -0.4,0 -0.84,-0.4 -0.44,-0.44 -0.44,-1.32 0,-0.88 1.04,-1.32 z m 1.24,13.36 q 0,3.2 4.24,3.2 1.88,0 3.48,-0.92 1.64,-0.92 2.68,-2.08 l 0,-3.36 -4.36,0 q -2.84,0 -4.44,0.72 -1.6,0.72 -1.6,2.44 z"
       style="font-style:normal;font-variant:normal;font-weight:normal;font-stretch:normal;font-size:40px;font-family:'Varela Round';-inkscape-font-specification:'Varela Round';fill:#ffffff;fill-opacity:1"
       id="path4246" />
    <path
       d="m 331.26422,257.69191 q -2.96,3.04 -6.84,3.04 -3.84,0 -6.64,-2.72 -3.04,-3 -3.04,-7.88 0,-4.8 3.04,-7.84 2.76,-2.76 6.64,-2.76 3.88,0 6.84,3.04 l 0,-9.8 q 0,-0.8 0.52,-1.32 0.52,-0.52 1.28,-0.52 0.8,0 1.32,0.52 0.52,0.52 0.52,1.32 l 0,25.96 q 0,0.76 -0.52,1.28 -0.52,0.52 -1.32,0.52 -0.76,0 -1.28,-0.52 -0.52,-0.52 -0.52,-1.28 l 0,-1.04 z m 0,-11.76 q -2.72,-3 -6.32,-3 -4.56,0 -6.04,4.08 -0.52,1.36 -0.52,3.12 0,3.44 1.88,5.4 1.72,1.8 4.68,1.8 3.6,0 6.32,-3 l 0,-8.4 z"
       style="font-style:normal;font-variant:normal;font-weight:normal;font-stretch:normal;font-size:40px;font-family:'Varela Round';-inkscape-font-specification:'Varela Round';fill:#ffffff;fill-opacity:1"
       id="path4248" />
    <path
       d="m 356.49859,257.69191 q -2.96,3.04 -6.84,3.04 -3.84,0 -6.64,-2.72 -3.04,-3 -3.04,-7.88 0,-4.8 3.04,-7.84 2.76,-2.76 6.64,-2.76 3.88,0 6.84,3.04 l 0,-9.8 q 0,-0.8 0.52,-1.32 0.52,-0.52 1.28,-0.52 0.8,0 1.32,0.52 0.52,0.52 0.52,1.32 l 0,25.96 q 0,0.76 -0.52,1.28 -0.52,0.52 -1.32,0.52 -0.76,0 -1.28,-0.52 -0.52,-0.52 -0.52,-1.28 l 0,-1.04 z m 0,-11.76 q -2.72,-3 -6.32,-3 -4.56,0 -6.04,4.08 -0.52,1.36 -0.52,3.12 0,3.44 1.88,5.4 1.72,1.8 4.68,1.8 3.6,0 6.32,-3 l 0,-8.4 z"
       style="font-style:normal;font-variant:normal;font-weight:normal;font-stretch:normal;font-size:40px;font-family:'Varela Round';-inkscape-font-specification:'Varela Round';fill:#ffffff;fill-opacity:1"
       id="path4250" />
    <path
       d="m 387.28359,234.45191 -2,-0.24 q -1.52,0 -2.4,0.72 -0.88,0.68 -0.88,2.8 l 0,2.2 5,0 q 0.68,0 1.12,0.44 0.44,0.44 0.44,1.12 0,0.68 -0.44,1.12 -0.44,0.44 -1.12,0.44 l -5,0 0,15.68 q 0,0.76 -0.52,1.28 -0.52,0.52 -1.32,0.52 -0.76,0 -1.28,-0.52 -0.52,-0.52 -0.52,-1.28 l 0,-15.68 -2.36,0 q -0.68,0 -1.12,-0.44 -0.44,-0.44 -0.44,-1.12 0,-0.68 0.44,-1.12 0.44,-0.44 1.12,-0.44 l 2.36,0 0,-2.32 q 0,-3.48 1.96,-5.36 1.6,-1.52 4.04,-1.52 1.88,0 3.48,0.8 0.92,0.52 0.92,1.24 0,0.72 -0.44,1.2 -0.4,0.48 -1.04,0.48 z"
       style="font-style:normal;font-variant:normal;font-weight:normal;font-stretch:normal;font-size:40px;font-family:'Varela Round';-inkscape-font-specification:'Varela Round';fill:#ffffff;fill-opacity:1"
       id="path4252" />
    <path
       d="m 392.23797,241.57191 q 0,-0.8 0.52,-1.32 0.52,-0.52 1.28,-0.52 0.8,0 1.32,0.52 0.52,0.52 0.52,1.32 l 0,17.16 q 0,0.76 -0.52,1.28 -0.52,0.52 -1.32,0.52 -0.76,0 -1.28,-0.52 -0.52,-0.52 -0.52,-1.28 l 0,-17.16 z m 4,-7.84 q 0,0.84 -0.6,1.44 -0.6,0.6 -1.44,0.6 l -0.24,0 q -0.84,0 -1.44,-0.6 -0.6,-0.6 -0.6,-1.44 l 0,-0.16 q 0,-0.84 0.6,-1.44 0.6,-0.6 1.44,-0.6 l 0.24,0 q 0.84,0 1.44,0.6 0.6,0.6 0.6,1.44 l 0,0.16 z"
       style="font-style:normal;font-variant:normal;font-weight:normal;font-stretch:normal;font-size:40px;font-family:'Varela Round';-inkscape-font-specification:'Varela Round';fill:#ffffff;fill-opacity:1"
       id="path4254" />
    <path
       d="m 402.71047,232.77191 q 0,-0.8 0.52,-1.32 0.52,-0.52 1.28,-0.52 0.8,0 1.32,0.52 0.52,0.52 0.52,1.32 l 0,25.96 q 0,0.76 -0.52,1.28 -0.52,0.52 -1.32,0.52 -0.76,0 -1.28,-0.52 -0.52,-0.52 -0.52,-1.28 l 0,-25.96 z"
       style="font-style:normal;font-variant:normal;font-weight:normal;font-stretch:normal;font-size:40px;font-family:'Varela Round';-inkscape-font-specification:'Varela Round';fill:#ffffff;fill-opacity:1"
       id="path4256" />
    <path
       d="m 415.49547,251.41191 q 0.32,2.72 2.04,4.32 1.72,1.6 4.8,1.6 3.08,0 5.16,-1.04 0.72,-0.36 1.24,-0.36 0.52,0 1,0.44 0.48,0.44 0.48,1 0,1.04 -0.88,1.52 -0.84,0.44 -1.52,0.76 -0.68,0.32 -1.48,0.56 -1.8,0.52 -4.16,0.52 -4.92,0 -7.64,-2.76 -2.72,-2.76 -2.72,-7.84 0,-4.4 2.28,-7.32 2.56,-3.28 7.28,-3.28 4.48,0 7.08,3.04 2.44,2.84 2.44,7.04 0,0.76 -0.52,1.28 -0.48,0.52 -1.32,0.52 l -13.56,0 z m 5.88,-8.8 q -3.56,0 -5.2,3.16 -0.6,1.12 -0.68,2.68 l 11.8,0 q -0.16,-2.84 -2.08,-4.48 -1.6,-1.36 -3.84,-1.36 z"
       style="font-style:normal;font-variant:normal;font-weight:normal;font-stretch:normal;font-size:40px;font-family:'Varela Round';-inkscape-font-specification:'Varela Round';fill:#ffffff;fill-opacity:1"
       id="path4258" />
    <path
       d="m 442.30797,257.37191 q 4.44,0 4.44,-2.84 0,-0.88 -0.88,-1.32 -0.88,-0.48 -2.24,-0.84 -1.32,-0.36 -2.88,-0.72 -1.56,-0.4 -2.92,-1.08 -1.32,-0.68 -2.2,-1.76 -0.88,-1.12 -0.88,-2.72 0,-1.6 0.48,-2.76 0.48,-1.16 1.44,-2 2.12,-1.8 5.88,-1.8 3,0 5.8,1 0.56,0.2 0.84,0.64 0.32,0.44 0.32,1 0,0.52 -0.48,1 -0.44,0.48 -0.88,0.48 -0.44,0 -1.08,-0.2 -1.92,-0.6 -4.2,-0.6 -2.28,0 -3.48,0.8 -1.16,0.8 -1.16,1.92 0,1.12 0.88,1.68 0.92,0.52 2.24,0.88 1.32,0.36 2.88,0.72 1.6,0.36 2.92,1 3.12,1.6 3.12,4.96 0,2.56 -1.92,4.16 -2.08,1.76 -5.8,1.76 -4.04,0 -7.28,-1.8 -0.68,-0.48 -0.68,-1.2 0,-0.72 0.44,-1.2 0.44,-0.52 0.96,-0.52 0.52,0 1.24,0.32 2.32,1.04 5.08,1.04 z"
       style="font-style:normal;font-variant:normal;font-weight:normal;font-stretch:normal;font-size:40px;font-family:'Varela Round';-inkscape-font-specification:'Varela Round';fill:#ffffff;fill-opacity:1"
       id="path4260" />
  </g>
</svg>
